<svg xmlns="http://www.w3.org/2000/svg" width="337.757" height="294.474" viewBox="0 0 337.757 294.474"><g transform="translate(-48.717 -259.146)"><path d="M333.693,393.62A134.477,134.477,0,1,1,199.216,259.146,134.481,134.481,0,0,1,333.693,393.62Z" transform="translate(18.381 0)" fill="#3d2314"/><path d="M303.574,383.131A114.848,114.848,0,1,1,188.729,268.288,114.847,114.847,0,0,1,303.574,383.131Z" transform="translate(28.869 10.489)" fill="#f39744"/><path d="M333.7,442.573A35.525,35.525,0,0,1,298.17,478.1H100.261a35.527,35.527,0,0,1-35.525-35.525V324.97H333.7Z" transform="translate(18.379 75.522)" fill="#3d2314"/><path d="M107.983,393.958a68.525,68.525,0,0,1-21.478-3.938c-4.353-1.069-6.936-4.095-6.936-8.235,0-10.758.3-22.6,3-33.307a7.777,7.777,0,0,1-4.554,1.467c-1.269,0-7.6-.477-7.6-9.86,0-16.109,12.811-26.116,33.432-26.116,16.388,0,36.268,6.706,40.829,19.133,1.428,3.887,2.433,11.587-6.865,19.474a24.7,24.7,0,0,1-3.97,2.74,20.559,20.559,0,0,1,1.271,1.943,23.66,23.66,0,0,1-.24,23.277c-2.892,5.014-10.234,13.423-26.885,13.423Zm-5.652-19.8a25.133,25.133,0,0,0,5.124.565c6.685,0,10.077-2.755,10.077-8.181,0-1.026,0-1.591-5.824-3.111-2.5-.651-5.862-1.529-8.551-3.461A138.9,138.9,0,0,0,102.331,374.162Z" transform="translate(24.89 62.899)" fill="#3d2314"/><g transform="translate(48.717 461.985)"><path d="M386.474,353.607H48.717l22.231,37.4-22.231,37.4H386.474l-22.231-37.4Zm-14.211,66.72H62.93l17.428-29.317L62.93,361.694H372.263l-17.43,29.315Z" transform="translate(-48.717 -353.607)" fill="#3d2314"/><path d="M364.668,357.373H55.336l17.427,29.316L55.336,416.005H364.668L347.24,386.689Z" transform="translate(-41.122 -349.286)" fill="#cb2636"/></g><path d="M-80.5-29.68v12.64a9.189,9.189,0,0,0-8-4.16c-6,0-10.48,4.32-10.48,10.68S-94.5.2-88.5.2a9.114,9.114,0,0,0,8.12-4.36V0h2.72V-29.68ZM-88.26-2.32c-4.48,0-7.84-3.28-7.84-8.2s3.36-8.2,7.84-8.2c4.44,0,7.8,3.28,7.8,8.2S-83.82-2.32-88.26-2.32Zm39.88-8.2c0-6.32-4.28-10.68-10.2-10.68s-10.28,4.44-10.28,10.68S-64.38.2-57.82.2A10.357,10.357,0,0,0-49.7-3.24l-1.6-1.84a8.293,8.293,0,0,1-6.44,2.76c-4.6,0-7.96-2.92-8.28-7.32h17.6C-48.42-9.96-48.38-10.28-48.38-10.52Zm-10.2-8.24a7.318,7.318,0,0,1,7.48,7H-66.02A7.308,7.308,0,0,1-58.58-18.76ZM-39.58,0h2.84V-29.68h-2.84Zm15.2-25.64a2.041,2.041,0,0,0,2.08-2.08,2.017,2.017,0,0,0-2.08-1.96,2.05,2.05,0,0,0-2.08,2A2.057,2.057,0,0,0-24.38-25.64ZM-25.82,0h2.84V-21.04h-2.84ZM-3.34.2C.22.2,3.22-1.24,4.9-3.96L2.78-5.4A7.117,7.117,0,0,1-3.34-2.32c-4.6,0-7.96-3.24-7.96-8.2,0-4.92,3.36-8.2,7.96-8.2A7.153,7.153,0,0,1,2.78-15.6L4.9-17.04C3.22-19.8.22-21.2-3.34-21.2c-6.28,0-10.84,4.4-10.84,10.68S-9.62.2-3.34.2ZM14.9-25.64a2.041,2.041,0,0,0,2.08-2.08,2.017,2.017,0,0,0-2.08-1.96,2.05,2.05,0,0,0-2.08,2A2.057,2.057,0,0,0,14.9-25.64ZM13.46,0H16.3V-21.04H13.46ZM35.82.2A10.349,10.349,0,0,0,46.5-10.52,10.316,10.316,0,0,0,35.82-21.2,10.349,10.349,0,0,0,25.1-10.52,10.382,10.382,0,0,0,35.82.2Zm0-2.52c-4.48,0-7.84-3.28-7.84-8.2s3.36-8.2,7.84-8.2,7.8,3.28,7.8,8.2S40.3-2.32,35.82-2.32Zm35.6-18.72V-10c0,4.8-2.76,7.64-7.16,7.64-4,0-6.32-2.28-6.32-6.76V-21.04H55.1v12.2C55.1-2.8,58.62.2,63.98.2a8.369,8.369,0,0,0,7.56-4.04V0h2.72V-21.04ZM90.86.2c5.48,0,8.68-2.36,8.68-6,0-8.08-13.64-3.8-13.64-9.48,0-2,1.68-3.48,5.48-3.48a10.784,10.784,0,0,1,6.2,1.8l1.24-2.28a14.258,14.258,0,0,0-7.44-1.96c-5.36,0-8.32,2.56-8.32,6,0,8.32,13.64,4,13.64,9.48,0,2.08-1.64,3.44-5.64,3.44a12.709,12.709,0,0,1-7.48-2.36L82.3-2.4C84.02-.92,87.38.2,90.86.2Z" transform="translate(214.347 518.212)" fill="#f6f1c7"/><path d="M182.069,410.285c-7.219,0-12.583-3.255-14.711-8.935-2.665-7.105.5-16.635,8.712-26.457a15.65,15.65,0,0,1-5.383-3.6,17.867,17.867,0,0,1-3.869-6.01,12.29,12.29,0,0,1-8.05-3.184c-3.545,9.961-5.471,13.781-11.684,13.781a10.139,10.139,0,0,1-5.939-1.752,10.027,10.027,0,0,1-1.419-1.2,22.825,22.825,0,0,1-9.807,2.648,11.621,11.621,0,0,1-8.551-3.412A17.583,17.583,0,0,1,111.048,376a11.527,11.527,0,0,1-9.349-4.582c-2.311-3.019-4.49-8.725-1.767-18.783a73.991,73.991,0,0,0,1.909-10.468l.043-.268c2.523-13.754,9.97-15.227,13.054-15.227a9.851,9.851,0,0,1,7.288,3.109,11.508,11.508,0,0,1,8.11-2.933c5.785,0,9.985,3.541,9.985,8.424,0,.5,0,.968-.009,1.409a24.436,24.436,0,0,1,2.126-5.56c.958-1.55,3.29-4.159,8.143-4.159a15.554,15.554,0,0,1,2.62.234,7.154,7.154,0,0,1,3.861,1.907,11.415,11.415,0,0,1,6.618-2.158,11.014,11.014,0,0,1,3.794.681,9.381,9.381,0,0,1,5.407,4.958,9.1,9.1,0,0,1,.7,4.441c5.308-7.406,11.656-10.243,16.573-10.243a9.892,9.892,0,0,1,7.383,2.925l1-.013a8,8,0,0,1,6.083,2.414c1.537,1.617,2.265,3.674,2.534,6.5a25.957,25.957,0,0,1,4.041-5.643,18.379,18.379,0,0,1,13.468-5.879c5.5,0,10.082,2.169,12.852,5.884a10.36,10.36,0,0,1,3.105-4.355A9.948,9.948,0,0,1,246.585,327a16.122,16.122,0,0,1,2.478.189,7.2,7.2,0,0,1,3.861,1.909,12.432,12.432,0,0,1,6.968-2.079,9.231,9.231,0,0,1,7.589,3.378c3.081,3.854,1.943,8.851,1.267,11.834,0,0-.193.883-.24,1.117a32.4,32.4,0,0,0,2.772-2.051l10.795-8.873-1.645,25.652-2.54,1.658c-5.68,3.713-10.479,5.519-14.655,5.519a12.349,12.349,0,0,1-8.594-3.159c-3.543,9.97-5.469,13.79-11.69,13.79a9.891,9.891,0,0,1-7.556-3.174,28.648,28.648,0,0,1-12.592,3.2,19.324,19.324,0,0,1-11.733-3.76,58.2,58.2,0,0,1-7.073,5.164l-.472.309c-.258,1.237-.517,3.453-.687,4.877C201.772,391.517,199.563,410.285,182.069,410.285Z" transform="translate(57.307 77.47)" fill="#3d2314"/><g transform="translate(101.367 382.93)"><path d="M73.236,336.844c0,7.707,4.881,2.48,9.01-5.046,7.561-10.215,51.465-8.733,42.947,6.783-4.675,8.514-18,6.457-20.185,6.457-1.548,0-3.116.18-3.356,1.688-1.731,10.666,18.7,4.327,18.7,16.579,0,13.481-13.605,16.79-26.507,12.465-2.021-1.535.155-25.51,1.93-31.748a33.978,33.978,0,0,1,4.746-10.26c-2.313-3.885-5.594-3.8-9.307-1.228-8.145,12.117-8.826,30.428-8.826,46.011,0,1.1.371,1.909,2.637,2.429,50.681,17.1,53-31.005,28.914-31.005,5.937-.114,12.169-1.417,16.7-5.261C158.67,320.941,73.236,299.88,73.236,336.844Z" transform="translate(-73.236 -316.791)" fill="#f6f1c7"/><path d="M259.5,338.028c.7-3.1,2.057-8.192-2.854-8.192-5.959,0-8.617,7.79-10.567,11.677h-.406c-.232-5.869,1.374-11.185-.872-11.583-.928-.159-3.075-.215-3.893.369-2.373,1.7-4.881,17.387-5.306,20.812-4.018,3.266-10.365,7.163-15.527,7.163-2.321,0-3.449-1.125-4.688-3.3,18.967-5.094,20.367-25.059,6.028-25.059-12.029,0-15.931,16.253-15.721,21.774-3.066,4.67-6.309,8.877-10.7,11.441.992-10.389.8-12.085,1.909-16.015a23.983,23.983,0,0,0,.943-4.973c.8-15.394-2.826-6.294-7.9-11.439-2.205-2.691-12.89-1.471-19.332,15.566-13.075,6.367-5.076-11.314-6.5-14.406a3.31,3.31,0,0,0-1.965-1.78c-6.474-2.362-10.865,9.3-11.937,11.432h-.406c-.23-5.869,1.372-11.185-.872-11.583-1.645-.281-3.706-.286-4.578,1.134-1.4,2.263-3.96,13.423-4.877,22.27a31.065,31.065,0,0,1-7.988,4.679c-2.688.938-3.547.348-3.653-2.476-.1-2.706-.062-2.392.85-7.3,2.128-11.4,2.321-11.623,2.321-16.212,0-3.262-7.767-2.944-8.3-.26l-4.089,20.2c-1.379,7.187-8.817,9.01-7.509,1.714,3.238-18.08,3.371-18.469,3.85-22.047,0-2.119-7.767-6-10.348,8.063a78.49,78.49,0,0,1-2.074,11.273c-4.6,16.994,6.824,21.179,17.269,7.743,1.054,4.862,3.324,12.92,19.455,2.4.183,1.885.571,3.73,2.13,4.814a4.157,4.157,0,0,0,2.446.648c3.167,0,3.41-2.837,10.825-23.5h.593c1.108,8.742,4.095,15.235,13.1,12.13-.12,8.291,8.725,16.466,18.181,7.522l-.741,4.411c-20.239,17.653-21.115,33.844-6.97,33.844,17.664,0,12.867-28.184,16.914-30.881,3.335-2.248,7.975-4.761,12.2-10.045,4.016,6.962,13.747,10.095,27.159.586.256,3.35,1.162,5.935,4.6,5.935,3.187,0,3.444-2.927,10.825-23.5h.595c1.688,13.32,7.471,16.659,20.2,8.34l.556-8.675C263.629,349.523,256.708,350.5,259.5,338.028Zm-81.519,55.833c-4.93,0,3.266-14.522,7.879-17.791C185.161,381.857,183.843,393.861,177.983,393.861Zm8.486-44.782c-.754,16.444-15.879,12.826-4.78-6.56q3.26-5.788,7.563-5.785Zm31.134-9.961c3.943-4.771,9.395-.786,5.452,4.58-2.691,3.676-6.283,5.222-8.521,5.222A18.876,18.876,0,0,1,217.6,339.117Z" transform="translate(-40.816 -302.22)" fill="#f6f1c7"/></g><path d="M194.265,317.846a21.767,21.767,0,0,0,4.675-.107c-2.113.739-4.222,1.488-6.259,2.4a.12.12,0,0,0,.058.223,35.337,35.337,0,0,0,9.749-1.969.437.437,0,0,1-.045.064,44.839,44.839,0,0,1-8.74,3.47c-2.693.756-5.759.835-8.293,1.995a.063.063,0,0,0,.013.114c2.751.477,5.877-.515,8.551-1.121a50.461,50.461,0,0,0,5.3-1.531c-2.368,1.452-5.274,2.332-7.645,3.38-4.443,1.965-9.038,2.824-13.625,4.338A63.045,63.045,0,0,1,162.16,332.2c-10.116.7-20.78.754-30.784-.994a53.019,53.019,0,0,1-14.72-4.862,57.507,57.507,0,0,1-6.425-3.884c1.548.788,3.12,1.535,4.662,2.33,2.175,1.127,4.578,2.547,7.08,2.411.133,0,.241-.187.12-.288-1.578-1.286-3.539-1.926-5.336-2.869-1.973-1.033-3.708-2.4-5.6-3.562a42.816,42.816,0,0,1-7.417-5.39,65.5,65.5,0,0,0,6.174,3.7c2.338,1.366,4.441,3.185,7.305,2.974.142-.009.238-.225.084-.3a44.59,44.59,0,0,1-8.45-5.68,32.506,32.506,0,0,0,4.735,1.149.266.266,0,0,0,.2-.483c-2.714-1.593-5.736-2.8-8.332-4.591a15.107,15.107,0,0,0,5.991,1.57c.249,0,.442-.356.221-.533a24.572,24.572,0,0,0-3.867-2.126c-.077-.039-.15-.084-.225-.127.588-.185,1.172-.481,1.748-.721.013.064.028.131.041.2a.889.889,0,0,0,1.072.608,5.476,5.476,0,0,0,2.583-1.153c1.933-1.394,1.443.84,1.359,2.276-.159,2.781,3.8.782,4.174,2.19.76,2.888,4.041,1.366,5.849,1.374,1.37.013,1.671,1.039,2.255,1.537.191,1.252-.036,2.942,1.3,3.247a6.37,6.37,0,0,0,3.5-.157c2.362-.769,1.593,1.514,3.187,1.95,1.387.384,2.1-.277,3.378.618a3.54,3.54,0,0,0,2.7.9c.492-.069.846-.784.986-1.172.82-2.27,1.482-4.058,3.824-4.767.043,2.265-1.215,3.822,1.787,4.862,1.707.588,3.232-.4,4.849,1.093.8.728,1.892.457,2.811.223.8-.2,1.314-1.291,1.692-1.9,1.059-1.7,2.626.779,3.76.734,2.849-.114,1.752-3.326,3.185-4.026.374,1.342.771,2.59,2.353,3.313,1.3.591,3.719.55,4.542-.85.842-1.437.034-2.454-.956-3.447a2.928,2.928,0,0,1-.466-.558,1.438,1.438,0,0,0-.086-.238c0-.616,2.693.472,3.472.986a3.269,3.269,0,0,0,2.48.711c.608-.21,1.5-.5,1.789-1.16.384-.885.861-3.994,2.381-3.041,2.175,1.376,3.55,1.9,5.607.129.472-.41.472-1.254.494-1.814.105-2.813,3.483.6,4.2,1.033,1.209.752,2.218.161,3.026-.7,1.093,1.46,2.948,3.03,4.514,2.01,1.25-.805,1.05-1.933.417-2.942.29,0,.58-.009.868-.019a.994.994,0,0,0,.595-.1,6.736,6.736,0,0,0,3.481,0,14.137,14.137,0,0,0,2.248-.672l-.006.228a18.074,18.074,0,0,0-1.774.6c-1.331.423-2.712.67-4.031,1.129a.312.312,0,0,0,0,.6,7.177,7.177,0,0,0,3.945-.281c.354-.1.777-.172,1.2-.264a15.786,15.786,0,0,1-3.464.943c-1.394.251-2.895.339-4.058,1.2a.16.16,0,0,0,.079.3,19.259,19.259,0,0,0,4.273-.423,16.557,16.557,0,0,0,3.44-.855c-.026.105-.049.215-.077.32a43.424,43.424,0,0,1-9.843,2.858A.146.146,0,0,0,194.265,317.846Z" transform="translate(63.132 57.363)" fill="#f39744" style="mix-blend-mode:screen;isolation:isolate"/><path d="M117.745,286.121a50.663,50.663,0,0,1,17.7-6.485,127.805,127.805,0,0,1,18.469-1.323,114.566,114.566,0,0,1,11.677.8c11.978,1.406,33.689,8.725,39.315,20.677a18.868,18.868,0,0,1,1.823,9.107c-.238,3.947-2.871,5.77-5.471,8.244a22.469,22.469,0,0,1-5.285,1.057,81.231,81.231,0,0,0-12.942,2.508c-5.74,1.5-11.43,2.92-17.194,4.009a.983.983,0,0,0-1.417.253c-3.322.591-6.672,1.076-10.08,1.381-12.674,1.136-25.98-1.022-37.98-5.1a78.905,78.905,0,0,1-10.314-4.7c-5.355-2.725-3.807-8.836-2.781-13.52C105.027,295.041,110.932,290.055,117.745,286.121Z" transform="translate(61.411 21.991)" fill="#f39744" style="mix-blend-mode:screen;isolation:isolate"/><path d="M212,312.174c-1.108.58-.664,1.668-.107,2.392.9,1.181-.167,1.065-1.239.756a.777.777,0,0,0-.885-.29c-.365-.133-.64-.247-.681-.26a4.287,4.287,0,0,0-2.27-.427c-.386.049-.816.313-.775.775.232,2.555-1.83,1.49-3.522,1.6a.672.672,0,0,0-.644.84,14.518,14.518,0,0,1,.64,2.134,9.236,9.236,0,0,0-2.018.084c-.629.092-.728.947-.354,1.34-.852.655-1.533.743-2.055.3.144-.2.281-.391.406-.571.374-.543-.5-1.222-.908-.7-.079.094-.15.185-.225.268a.47.47,0,0,0-.685.612l.024.043c-2.336,1.913-3.273-2.008-5.538-2.008-1.4,0-2.291,1.445-2.467,2.633-.479,3.283-4.335-.4-5.733-.281-1.628.137-3.193,5.143-4.709,4.295-1.563-.88-3.131-1.945-5.061-1.4a4.066,4.066,0,0,0-.565.217c-.449-.371-.9-.685-1.19-.9a28.867,28.867,0,0,1-2.828-2.212,27.012,27.012,0,0,0-3.017-2.764c-.2-.144-.475.137-.335.337a20.183,20.183,0,0,0,4.254,4.722c.782.575,1.561,1.151,2.285,1.8a1.033,1.033,0,0,0,.024.432,7.268,7.268,0,0,0,2.126,2.888,1.8,1.8,0,0,1-2.375.885,1.729,1.729,0,0,1-1.525-1.243.826.826,0,0,0,.09-.524c-.442-3.023-4.4-4.628-6.324-6.575-.045-.043-.125.015-.088.066,1.254,1.692,3.3,3.182,4.445,5.051.013.034.026.069.039.107a2.2,2.2,0,0,0-1.686,2.13c-.2,1.872-2,.96-2.914.361a2.3,2.3,0,0,0-1.948.142,4.86,4.86,0,0,0-1.7,1.774c-1.4,2.24-2.721-.831-3.833-1.029-.859-.159-4.621.374-4.4-1.172a7.3,7.3,0,0,0,.137-3,.659.659,0,0,0-.341-.434c.225-.228.447-.453.67-.672a42.578,42.578,0,0,1,4.7-4.346.145.145,0,0,0-.146-.251,19.54,19.54,0,0,0-4.653,2.948,37.653,37.653,0,0,0-3.595,3.094,4.686,4.686,0,0,0-2.336,2.5c-.472,1.168-.629,3.193-2.356,1.92a3.319,3.319,0,0,0-2.549-1.024c-2,.18-2.053-2.847-4.563-1.971-.423.15-2.147.878-2.935.543a.7.7,0,0,0-.178-.573c-.384-.445-.253-.988.176-1.563a.882.882,0,0,0,.131-.167c1.454-1.75,5.437-3.762,6.249-4.359a.233.233,0,0,0-.178-.423,17.3,17.3,0,0,0-6.556,3.44.883.883,0,0,0-.713,0c-.032-.054-.056-.092-.1-.159-.148-.21-.354-.608-.616-.732a7.35,7.35,0,0,0-2.585-.827c-1.374-.12-3.812,1.321-4.207-.861a2.035,2.035,0,0,0-1.847-1.361c-1.707.193-2.3.694-2.046-1.462a3.322,3.322,0,0,0-.945-2.317c-1-1.282-3.107.44-4.505,1.252-.009-.049-.021-.1-.03-.15a.879.879,0,0,0-1.078-.608c-1.593.393-3.719,1.495-4.748-.543-.3-.588-1.082-1.445-1.806-1.4a5.337,5.337,0,0,0-2.435.76c-1.868,1.011-1.658-2.016-2.308-2.665a2.617,2.617,0,0,0-1.746-.827c-.453.026-.859.075-1.308.142-2.006.277-.4-.7.3-.932,1.361-.44,3.442-1.057,3.479-2.849a.8.8,0,0,0-.4-.691c-.438-.217-2.551-.152-1.11-1.241a3.858,3.858,0,0,0,1.458-1.845c.221-.548-.4-.973-.878-.88-4.039.784-1.344-3.255.87-3.172a.194.194,0,0,0,.114-.034c1.331.2,2.7.337,4.076.421-1.361,1.812-.7,5.315.146,7a9.958,9.958,0,0,0,10.668,5.074c1.065-.241,2.347,4.7,4.37,2.182a3.369,3.369,0,0,0,.807-1.492c.472-1.557,1.368-.945,2.671-.885a1.846,1.846,0,0,0,1.05-.5c1.924-1.572,1.2.524,1.142,1.6a.768.768,0,0,0,.752.754c2.371.311.79,2.6.767,4a.82.82,0,0,0,.816.816c1.862-.011,3.172-1.7,4.776-.758.928.541,2.119-.041,3.013-.728.541,1.185,1.462,1.784,2.856.543.4-.352,2.613-2.768,2.914-.341a5.2,5.2,0,0,0,.283,1.426,2.142,2.142,0,0,0,2.222,1.372.651.651,0,0,0,.713-.653,6.3,6.3,0,0,0,.737-.376c1.254-.756,2.673-.38,4.039-.6a2.523,2.523,0,0,0,1.718-1.48c.279-.67.389-1.209.653-1.7a20.575,20.575,0,0,0,3.878,1.591.946.946,0,0,0,.279.041.934.934,0,0,0,.878.028c1.711-.825,3.026-2.2,4.617-3.234.191-.122.384-.243.573-.361,1.344.657,1.9,3.519,3.661,3.779a.781.781,0,0,0,.934-.528c.825-2.461,2.869.762,4.277,1.172,1.821.528,2.77-2.433,4.782-.049a1.223,1.223,0,0,0,1.827.217,6.325,6.325,0,0,0,1.218-1.4c1.4-1.834,1.325-1.6,3.105-.44a.7.7,0,0,0,1.02-.417c.14-.417.76-4.643,2.467-2.188a5.627,5.627,0,0,0,1.55,1.6,2.576,2.576,0,0,0,3.249-.481c1.379-1.194,1.428-2.7,3.829-3,1.127-.144,2.274.52,3.352.52a2.439,2.439,0,0,0,1.716-.719,7.542,7.542,0,0,1,3.066-1.924.825.825,0,0,0,.586-.773c.148-1.484,1.278-1.153,1.969-1.982a4.606,4.606,0,0,0,1.05-1.634c.021-.049.069-.457.127-.885a1.593,1.593,0,0,0,.361-.264c.513.58-.064,1.761.251,2.972C210.355,309.612,214.654,310.785,212,312.174Z" transform="translate(58.154 48.066)" fill="#54897f"/><path d="M171.857,306.2a2.8,2.8,0,0,1-1.827,2.877,2.23,2.23,0,0,0-.842.464,1.979,1.979,0,0,0-.434.833c-.329,1.2.077.277-1.157.739-1.125.421-2.124,2.534-3.2,2.478a11.361,11.361,0,0,0-4.355.131,5.351,5.351,0,0,0-2.416,1.93c-1.9,2.573-3.483-.146-5.177-1.181-1.673-1.018-2.482.812-2.929,2.326-.322-.225-.664-.423-.971-.674a13.1,13.1,0,0,1-1.58-1.638,10.231,10.231,0,0,0-3.2-2.815c-.049-.028-.09.03-.058.073,1,1.256,1.825,2.645,2.8,3.921.251.329.53.689.837,1.037-.792.112-1.381.96-2.682,2.613-.3.382-1.943-1.065-2.523-1.269-1.2-.41-3.642,1.593-4.4.6-1.215-1.583-3.4-2.753-4.673-.56a12.483,12.483,0,0,0-2.306-2.48c1.072-.648,2.158-1.26,3.273-1.853,3.513-1.879,6.564-4.445,10.127-6.21a.419.419,0,0,0,.189-.2,105.87,105.87,0,0,0,12.386-1.1c4.211-.573,8.688-1.5,12.308-3.867a.721.721,0,0,0,.084.069,2.246,2.246,0,0,1,1.245,2.656c-.258,1.449-1.978,1.473-3.011,1.69a3.077,3.077,0,0,0-2.051,1.621c-.228.391-.348.889-.541,1.291-.648,1.333-2.323-.075-3.069-.264a3.154,3.154,0,0,0-3.071.657.1.1,0,0,0,.073.176,5.325,5.325,0,0,1,3.507.726,2.879,2.879,0,0,0,2.066.47c2.184-.721,1.926-3.477,4.314-3.861a3.157,3.157,0,0,0,1.291-5.819c.107-.08.215-.153.322-.236a13.187,13.187,0,0,0,1.872-1.821c.232,1.093.5,2.173.638,3.279a6.591,6.591,0,0,1-.03,1.939c-.082.013-.163.03-.247.041-.036.009-.067.032-.1.043s-.073.013-.107.021A.713.713,0,0,0,171.857,306.2Z" transform="translate(94.135 46.561)" fill="#54897f"/><path d="M131.461,310.192a17.222,17.222,0,0,0-1.265,1.422,9.275,9.275,0,0,1-1.391,1.52.428.428,0,0,0-.15.326c-.825.762-1.419,1.608-1.711-.185-.1-.627-.887-.661-1.28-.339-2.353,1.926-1.578.135-3.532.135-.054,0-.105.013-.159.017.2-.311.374-.616.52-.814.747-1.035,1.542-2.04,2.244-3.111.112-.172-.1-.361-.271-.268a9.736,9.736,0,0,0-2.663,2.433c-.419.485-.8,1.013-1.187,1.52-.251.32-.518.62-.47,1a8.236,8.236,0,0,1-1.213.644c.247-2.248,1.061-3.805-1.664-4.359.107-1.353.228-3.9-1.641-3.279a11.384,11.384,0,0,1-4.288.938c-.088,0-.161.013-.241.017,2.025-1.63,4.982-2.414,7.26-3.378a.134.134,0,0,0,.045-.191c1.677.129,3.376.187,5.087.266,1.3.058,2.734.133,4.243.18a.56.56,0,0,0,.363.721c4.784,1.3,8.5,4.542,12.669,6.953a5.136,5.136,0,0,0-.432,1.009c-.563,1.806-2.034,1.273-3.494,1.572-1.181.238-2.268.679-3.414,1.013-.745-1-.374-3.565-2.242-3.616a3.16,3.16,0,0,0-.438.026,21.591,21.591,0,0,0,.85-2.074C131.637,310.211,131.53,310.112,131.461,310.192Z" transform="translate(71.571 51.744)" fill="#54897f"/><path d="M117.62,312.106c-.032.067-.071.131-.1.2a8.386,8.386,0,0,0-.468,1.413c-.3-.4-.764-.717-.919-1.162a1.948,1.948,0,0,0-1.963-1.022,8.424,8.424,0,0,1-7.531-2.066c-1.555-1.265-4.512-6.1-2.083-8.08a.316.316,0,0,0,.1-.122c.7.028,1.394.047,2.089.064a5.065,5.065,0,0,0-.88,1.679c-.453,1.709,1.359,2.547,2.646,2.991a1.808,1.808,0,0,0,.938-.013c.764-.185.438.713.271,1.089a1.3,1.3,0,0,0,.479,1.613,1.817,1.817,0,0,0,1.632.228,11.779,11.779,0,0,0,1.185-.421c.457-.155.906.017,1.353-.144a.3.3,0,0,0,.2-.361c-.015-.071-.034-.135-.049-.2a.505.505,0,0,0-.359-.356,4.918,4.918,0,0,0-2.63.419c-1.26.324-.215-1.044-.176-1.278a1.673,1.673,0,0,0-.309-1.406c-.674-1.026-1.606-.268-2.508-.578-.792-.271-1.572-.621-1.346-1.6s.938-1.209,1.589-1.63c1.108.011,2.2.011,3.258.017a31.209,31.209,0,0,0,3.977,3.045,20.646,20.646,0,0,0,9.659,3.124,12.37,12.37,0,0,0-3.571,1.1,12.252,12.252,0,0,0-4.415,2.673A.638.638,0,0,0,117.62,312.106Z" transform="translate(63.009 48.328)" fill="#cb2636"/><path d="M115.59,303.4a9.552,9.552,0,0,0-1.784-.737c.8.077,1.4.12,1.722.142a.311.311,0,0,0,.155-.578,11.851,11.851,0,0,0-2.723-.827c.142-.013.286-.032.419-.054a.218.218,0,0,0,.094-.361,6.078,6.078,0,0,0-1.3-.784c.243.056.479.118.722.176a120.953,120.953,0,0,0,16.1,2.573,43.6,43.6,0,0,1-13.973.758c.18-.017.356-.041.535-.075A.129.129,0,0,0,115.59,303.4Z" transform="translate(72.802 47.11)" fill="#cb2636"/><path d="M131.507,302.215a.427.427,0,0,0,.348.247,7.054,7.054,0,0,0-1.039.578.048.048,0,0,0,.028.088,18.235,18.235,0,0,0,3.419-.253c-.878.258-1.759.518-2.648.777a.289.289,0,0,0,.075.565,38.439,38.439,0,0,0,4.825-.477,12.955,12.955,0,0,0-1.632.644.064.064,0,0,0,.032.118,25.71,25.71,0,0,0,7.043-.956c-.956.348-1.93.625-2.854.868-4.338,1.153-8.974.977-13.425.953-4.653-.037-9.742.161-14.2-1.413a9.617,9.617,0,0,1,2.117.5c.241.105.447-.228.21-.363A29.445,29.445,0,0,1,111.4,302.3C117.7,304.274,124.867,303.853,131.507,302.215Z" transform="translate(71.912 49.414)" fill="#cb2636"/><path d="M157.143,298.636c.777-.146,1.552-.009,2.332-.125.21-.032.419-.075.627-.109a.387.387,0,0,0-.064.021c-1.731.537-3.635.584-5.321,1.215-.084.032-.133.172-.028.217,2.424,1.052,5.866.06,8.589-1.194a10.574,10.574,0,0,1-4.177,1.686c-1.868.445-3.708.857-5.557,1.381-.069.021-.056.135.017.129,1.432-.161,3.217-.165,4.993-.333-1.832.46-3.732.719-5.564.988a107.478,107.478,0,0,1-18.8.621c8.074-1.776,16.036-4.254,24.233-5.265a10.377,10.377,0,0,1-1.321.631A.071.071,0,0,0,157.143,298.636Z" transform="translate(98.068 44.426)" fill="#cb2636"/><path d="M161.876,300.564a13.837,13.837,0,0,0,3.328-1.08,11.982,11.982,0,0,1-2.557,1.327c-1.308.52-2.734,1.123-4.065,1.529a.143.143,0,0,0,.073.277c1.239-.206,2.332-.247,3.446-.423-.369.18-.728.335-1.061.464a51.337,51.337,0,0,1-11.228,2.377c-3.111.4-6.219.668-9.339.764.85-.112,1.677-.251,2.459-.427a.362.362,0,0,0,0-.694,40.686,40.686,0,0,0-5.727-.7,5.213,5.213,0,0,0,.818-.464.213.213,0,0,0-.105-.4,19.631,19.631,0,0,1-3.255-.326A69.635,69.635,0,0,0,155,302.031a31.888,31.888,0,0,0,7.765-2.326c-.333.217-.666.423-.981.631A.125.125,0,0,0,161.876,300.564Z" transform="translate(98.608 46.281)" fill="#cb2636"/><g transform="translate(145.279 296.892)"><g transform="translate(11.516 73.251)"><path d="M128.01,318.674c-1.037-.054-2.074-.116-3.116-.157-8.091-.294-17.5-.872-25.371,1.213-.6.159-.666,1.16,0,1.278,7.391,1.3,15.555.582,23.062.7,5.549.088,11.121.331,16.672.779A64.1,64.1,0,0,1,128.01,318.674Z" transform="translate(-99.049 -302.371)" fill="#3d2314"/><path d="M175.936,319.627c-8.473-.657-16.915,0-25.4.185-2.714.054-5.392-.009-8.057-.142a28.675,28.675,0,0,1-8.8,1.988c-.84.041-1.7.06-2.568.064,14.857,1.439,30.213.4,44.888-1.6C176.3,320.08,176.2,319.644,175.936,319.627Z" transform="translate(-62.258 -301.078)" fill="#3d2314"/><path d="M173.516,314.949c-7.456-.573-14.883-.129-22.339.105a11.633,11.633,0,0,1-3.9,2.579c-.019.009-.039.013-.06.021a237.108,237.108,0,0,0,26.361-2.2C173.881,315.409,173.78,314.973,173.516,314.949Z" transform="translate(-43.778 -306.441)" fill="#3d2314"/><path d="M163.264,311.114c-3.844-.294-7.681-.318-11.518-.238a4.348,4.348,0,0,1-.5,1.817l-.163.313c4.116-.376,8.211-.844,12.251-1.394C163.633,311.574,163.53,311.138,163.264,311.114Z" transform="translate(-39.349 -310.837)" fill="#3d2314"/></g><g transform="translate(6.449 84.36)"><path d="M121.815,316.01c-8.284.032-16.717-.06-24.763,1.181a.51.51,0,0,0,0,.977c9.09,1.353,18.755.41,27.99.03C123.926,317.511,122.848,316.785,121.815,316.01Z" transform="translate(-96.689 -316.01)" fill="#3d2314"/><path d="M177.751,319.145c-3.94-1.649-8.8-1.432-13.028-1.675-5.132-.294-10.271-.608-15.4-.911-.874.417-1.776.807-2.719,1.153a26.569,26.569,0,0,1-3.172.915c11.411.694,22.822,1.306,34.233,1.153A.325.325,0,0,0,177.751,319.145Z" transform="translate(-43.062 -315.379)" fill="#3d2314"/></g><g transform="translate(0 76.507)"><path d="M173.409,313.463c-7.133-.556-14.323-.9-21.536-1.11a18.219,18.219,0,0,1-1.937,2.9c7.84-.14,15.667-.421,23.472-1.029A.382.382,0,0,0,173.409,313.463Z" transform="translate(-29.147 -312.353)" fill="#3d2314"/><path d="M118.606,313.248c-8.194-.472-16.685-1.1-24.245,1.185a.951.951,0,0,0,.251,1.86c9.053.533,18.151.646,27.258.537A34.092,34.092,0,0,1,118.606,313.248Z" transform="translate(-93.686 -311.846)" fill="#3d2314"/></g><g transform="translate(4.231 70.223)"><path d="M112.983,310.5q-8.317.351-16.618.724a.735.735,0,0,0,0,1.469c6.015.5,12.066.623,18.136.539A28.555,28.555,0,0,1,112.983,310.5Z" transform="translate(-95.656 -308.195)" fill="#3d2314"/><path d="M165.1,309.954a111.794,111.794,0,0,0-13.18-.515,17.722,17.722,0,0,1-.341,2.008c4.552-.067,9.085-.223,13.522-.648A.422.422,0,0,0,165.1,309.954Z" transform="translate(-31.494 -309.427)" fill="#3d2314"/></g><g transform="translate(8.851)"><path d="M225.083,321.945c-1.512-4.17-6.919-6.53-10.228-7.608a18.676,18.676,0,0,0,.591-7.829c-.85-6.3-5.018-13.148-10.619-17.428-2.137-1.638-13.7-8.19-26.608-10.507a82.944,82.944,0,0,0-11.37-1.4,87.833,87.833,0,0,0-9.008-.447,112.912,112.912,0,0,0-12.128.683H145.7c-.045-.006-.094-.011-.15-.021l-.125-.021h-.12a1.358,1.358,0,0,0-.648.163c-.981.112-1.967.238-2.946.374a55.285,55.285,0,0,0-18.905,6.152c-5.278,2.776-12.714,7.35-16.313,14.993-2.424,5.139-4.993,15.308.747,20.829a10.529,10.529,0,0,0,.917.782,21.594,21.594,0,0,1-2.225,1.845c-.256.185-.535.369-.82.569a10.389,10.389,0,0,0-3.674,3.461,2.288,2.288,0,0,0,0,2.164,8.635,8.635,0,0,0-.994,1.224,3.159,3.159,0,0,0-.412,3.285,2.789,2.789,0,0,0,1.114,1.13,3.736,3.736,0,0,0-.5,1.512,2.32,2.32,0,0,0,.127,1.089,4.661,4.661,0,0,0-1.836,1.035,3.455,3.455,0,0,0-.176,4.919,4.218,4.218,0,0,0,3.03.795c.228,0,.548.009.807.026a4.954,4.954,0,0,0,1.237,3.013,3.119,3.119,0,0,0,2.263.941l.125,0a16.654,16.654,0,0,0-.058,2.824,2.2,2.2,0,0,0-.092,1.181,7.039,7.039,0,0,0,.539,1.6c.453,1.7,1.372,3.79,3.206,4.606a57.292,57.292,0,0,0,28.819,13.865,106.108,106.108,0,0,0,18.557,1.518,151.144,151.144,0,0,0,16.691-.969,62.686,62.686,0,0,0,10.709-2.467c1.83-.537,3.719-1.093,5.613-1.542a90.843,90.843,0,0,0,14.43-5.014c3.322-1.4,7.316-3.485,8.7-7.247a23.042,23.042,0,0,0,1.282-9.229,2.419,2.419,0,0,0,.891-.421,4.347,4.347,0,0,0,1.681-2.762,2.982,2.982,0,0,0-.479-2.124c.045-.06.1-.129.146-.185a4.614,4.614,0,0,0,1.026-1.969c.247-1.2,0-2.892-2.56-4.125a.947.947,0,0,1-.38-.255,2.7,2.7,0,0,1,.026-.646,4.234,4.234,0,0,0-.3-2.5,3.316,3.316,0,0,0-1.035-1.241c-.009-.273-.028-.56-.054-.859a14.209,14.209,0,0,0-.872-3.64.413.413,0,0,1,.047-.019,3.073,3.073,0,0,1,.307-.14,7.244,7.244,0,0,1,1.8-.251l.225-.017c.756-.045,1.529-.045,2.347-.049a17.557,17.557,0,0,0,6.2-.762A2.272,2.272,0,0,0,225.083,321.945Zm-11.248,18.128c-1.108.58-.664,1.668-.107,2.392.9,1.181-.167,1.065-1.239.756a.777.777,0,0,0-.885-.29c-.365-.133-.64-.247-.681-.26a4.287,4.287,0,0,0-2.27-.427c-.386.049-.816.313-.775.775.232,2.555-1.83,1.49-3.522,1.6a.672.672,0,0,0-.644.84,14.518,14.518,0,0,1,.64,2.134,9.236,9.236,0,0,0-2.018.084c-.629.092-.728.947-.354,1.34-.852.655-1.533.743-2.055.3.144-.2.281-.391.406-.571.374-.543-.5-1.222-.908-.7-.079.094-.15.185-.225.268a.47.47,0,0,0-.685.612l.024.043c-2.336,1.913-3.273-2.008-5.538-2.008-1.4,0-2.291,1.445-2.467,2.633-.479,3.283-4.335-.4-5.733-.281-1.628.137-3.193,5.143-4.709,4.295-1.563-.88-3.131-1.945-5.061-1.4a4.066,4.066,0,0,0-.565.217c-.449-.371-.9-.685-1.19-.9a28.867,28.867,0,0,1-2.828-2.212,27.012,27.012,0,0,0-3.017-2.764c-.2-.144-.475.137-.335.337a20.183,20.183,0,0,0,4.254,4.722c.782.575,1.561,1.151,2.285,1.8a1.033,1.033,0,0,0,.024.432,7.268,7.268,0,0,0,2.126,2.888,1.8,1.8,0,0,1-2.375.885,1.729,1.729,0,0,1-1.525-1.243.826.826,0,0,0,.09-.524c-.442-3.023-4.4-4.628-6.324-6.575-.045-.043-.125.015-.088.066,1.254,1.692,3.3,3.182,4.445,5.051.013.034.026.069.039.107a2.2,2.2,0,0,0-1.686,2.13c-.2,1.872-2,.96-2.914.361a2.3,2.3,0,0,0-1.948.142,4.86,4.86,0,0,0-1.7,1.774c-1.4,2.24-2.721-.831-3.833-1.029-.859-.159-4.621.374-4.4-1.172a7.3,7.3,0,0,0,.137-3,.659.659,0,0,0-.341-.434c.225-.228.447-.453.67-.672a42.578,42.578,0,0,1,4.7-4.346.145.145,0,0,0-.146-.251,19.54,19.54,0,0,0-4.653,2.948,37.653,37.653,0,0,0-3.595,3.094,4.686,4.686,0,0,0-2.336,2.5c-.472,1.168-.629,3.193-2.356,1.92a3.319,3.319,0,0,0-2.549-1.024c-2,.18-2.053-2.847-4.563-1.971-.423.15-2.147.878-2.935.543a.7.7,0,0,0-.178-.573c-.384-.445-.253-.988.176-1.563a.882.882,0,0,0,.131-.167c1.454-1.75,5.437-3.762,6.249-4.359a.233.233,0,0,0-.178-.423,17.3,17.3,0,0,0-6.556,3.44.883.883,0,0,0-.713,0c-.032-.054-.056-.092-.1-.159-.148-.21-.354-.608-.616-.732a7.35,7.35,0,0,0-2.585-.827c-1.374-.12-3.812,1.321-4.207-.861a2.035,2.035,0,0,0-1.847-1.361c-1.707.193-2.3.694-2.046-1.462a3.322,3.322,0,0,0-.945-2.317c-1-1.282-3.107.44-4.505,1.252-.009-.049-.021-.1-.03-.15a.879.879,0,0,0-1.078-.608c-1.593.393-3.719,1.495-4.748-.543-.3-.588-1.082-1.445-1.806-1.4a5.337,5.337,0,0,0-2.435.76c-1.868,1.011-1.658-2.016-2.308-2.665a2.617,2.617,0,0,0-1.746-.827c-.453.026-.859.075-1.308.142-2.006.277-.4-.7.3-.932,1.361-.44,3.442-1.057,3.479-2.849a.8.8,0,0,0-.4-.691c-.438-.217-2.551-.152-1.11-1.241a3.858,3.858,0,0,0,1.458-1.845c.221-.548-.4-.973-.878-.88-4.039.784-1.344-3.255.87-3.172a.194.194,0,0,0,.114-.034c1.331.2,2.7.337,4.076.421-1.361,1.812-.7,5.315.146,7a9.958,9.958,0,0,0,10.668,5.074c1.065-.241,2.347,4.7,4.37,2.182a3.369,3.369,0,0,0,.807-1.492c.472-1.557,1.368-.945,2.671-.885a1.846,1.846,0,0,0,1.05-.5c1.924-1.572,1.2.524,1.142,1.6a.768.768,0,0,0,.752.754c2.371.311.79,2.6.767,4a.82.82,0,0,0,.816.816c1.862-.011,3.172-1.7,4.776-.758.928.541,2.119-.041,3.013-.728.541,1.185,1.462,1.784,2.856.543.4-.352,2.613-2.768,2.914-.341a5.2,5.2,0,0,0,.283,1.426,2.142,2.142,0,0,0,2.222,1.372.651.651,0,0,0,.713-.653,6.3,6.3,0,0,0,.737-.376c1.254-.756,2.673-.38,4.039-.6a2.523,2.523,0,0,0,1.718-1.48c.279-.67.389-1.209.653-1.7a20.575,20.575,0,0,0,3.878,1.591.946.946,0,0,0,.279.041.934.934,0,0,0,.878.028c1.711-.825,3.026-2.2,4.617-3.234.191-.122.384-.243.573-.361,1.344.657,1.9,3.519,3.661,3.779a.781.781,0,0,0,.934-.528c.825-2.461,2.869.762,4.277,1.172,1.821.528,2.77-2.433,4.782-.049a1.223,1.223,0,0,0,1.827.217,6.325,6.325,0,0,0,1.218-1.4c1.4-1.834,1.325-1.6,3.105-.44a.7.7,0,0,0,1.02-.417c.14-.417.76-4.643,2.467-2.188a5.627,5.627,0,0,0,1.55,1.6,2.576,2.576,0,0,0,3.249-.481c1.379-1.194,1.428-2.7,3.829-3,1.127-.144,2.274.52,3.352.52a2.439,2.439,0,0,0,1.716-.719,7.542,7.542,0,0,1,3.066-1.924.825.825,0,0,0,.586-.773c.148-1.484,1.278-1.153,1.969-1.982a4.606,4.606,0,0,0,1.05-1.634c.021-.049.069-.457.127-.885a1.593,1.593,0,0,0,.361-.264c.513.58-.064,1.761.251,2.972C212.186,337.511,216.485,338.683,213.835,340.072Zm-12.762,14.969a21.767,21.767,0,0,0,4.675-.107c-2.113.739-4.222,1.488-6.259,2.4a.12.12,0,0,0,.058.223,35.337,35.337,0,0,0,9.749-1.969.437.437,0,0,1-.045.064,44.839,44.839,0,0,1-8.74,3.47c-2.693.756-5.759.835-8.293,1.995a.063.063,0,0,0,.013.114c2.751.477,5.877-.515,8.551-1.121a50.461,50.461,0,0,0,5.3-1.531c-2.368,1.452-5.274,2.332-7.645,3.38-4.443,1.965-9.038,2.824-13.625,4.338a63.045,63.045,0,0,1-15.847,3.094c-10.116.7-20.78.754-30.784-.994a53.019,53.019,0,0,1-14.72-4.862,57.507,57.507,0,0,1-6.425-3.884c1.548.788,3.12,1.535,4.662,2.33,2.175,1.127,4.578,2.547,7.08,2.411.133,0,.241-.187.12-.288-1.578-1.286-3.539-1.926-5.336-2.869-1.973-1.033-3.708-2.4-5.6-3.562a42.816,42.816,0,0,1-7.417-5.39,65.5,65.5,0,0,0,6.174,3.7c2.338,1.366,4.441,3.185,7.305,2.974.142-.009.238-.225.084-.3a44.59,44.59,0,0,1-8.45-5.68,32.506,32.506,0,0,0,4.735,1.149.266.266,0,0,0,.2-.483c-2.714-1.593-5.736-2.8-8.332-4.591a15.107,15.107,0,0,0,5.991,1.57c.249,0,.442-.356.221-.533a24.572,24.572,0,0,0-3.867-2.126c-.077-.039-.15-.084-.225-.127.588-.185,1.172-.481,1.748-.721.013.064.028.131.041.2a.889.889,0,0,0,1.072.608,5.476,5.476,0,0,0,2.583-1.153c1.933-1.394,1.443.84,1.359,2.276-.159,2.781,3.8.782,4.174,2.19.76,2.888,4.041,1.366,5.849,1.374,1.37.013,1.671,1.039,2.255,1.537.191,1.252-.036,2.942,1.3,3.247a6.371,6.371,0,0,0,3.5-.157c2.362-.769,1.593,1.514,3.187,1.95,1.387.384,2.1-.277,3.378.618a3.54,3.54,0,0,0,2.7.9c.492-.069.846-.784.986-1.172.82-2.27,1.482-4.058,3.824-4.767.043,2.265-1.215,3.822,1.787,4.862,1.707.588,3.232-.4,4.849,1.093.8.728,1.892.457,2.811.223.8-.2,1.314-1.291,1.692-1.9,1.059-1.7,2.626.779,3.76.734,2.849-.114,1.752-3.326,3.185-4.026.374,1.342.771,2.59,2.353,3.313,1.3.591,3.719.55,4.542-.85.842-1.437.034-2.454-.956-3.447a2.928,2.928,0,0,1-.466-.558,1.438,1.438,0,0,0-.086-.238c0-.616,2.693.472,3.472.986a3.269,3.269,0,0,0,2.48.711c.608-.21,1.5-.5,1.789-1.16.384-.885.861-3.994,2.381-3.041,2.175,1.376,3.55,1.9,5.607.129.472-.41.472-1.254.494-1.814.105-2.813,3.483.6,4.2,1.033,1.209.752,2.218.161,3.026-.7,1.093,1.46,2.948,3.03,4.514,2.01,1.25-.805,1.05-1.933.417-2.942.29,0,.58-.009.868-.019a.994.994,0,0,0,.595-.1,6.736,6.736,0,0,0,3.481,0,14.137,14.137,0,0,0,2.248-.672l-.006.228a18.074,18.074,0,0,0-1.774.6c-1.331.423-2.712.67-4.031,1.129a.312.312,0,0,0,0,.6,7.177,7.177,0,0,0,3.945-.281c.354-.1.777-.172,1.2-.264a15.786,15.786,0,0,1-3.464.943c-1.394.251-2.895.339-4.058,1.2a.16.16,0,0,0,.079.3,19.259,19.259,0,0,0,4.273-.423,16.557,16.557,0,0,0,3.44-.855c-.026.105-.049.215-.077.32a43.424,43.424,0,0,1-9.843,2.858A.146.146,0,0,0,201.073,355.041Zm10.041-9.538c-1.286.623-2.661.956-4,1.512a.255.255,0,0,0,.069.5,9.734,9.734,0,0,0,4.172-.921c0,.039,0,.079,0,.116-.73.228-1.454.595-2.147.844a25.522,25.522,0,0,1-3.206.883,8.76,8.76,0,0,0-.591-2.472c1.132.163,2.6.6,3.352-.045a.09.09,0,0,0,.028-.024.412.412,0,0,0,.253.064A10.347,10.347,0,0,0,211.114,345.5Zm-1.484-1.1c.18-.374.391-.445.691-.356-.043.036-.09.06-.135.1C210,344.221,209.815,344.309,209.63,344.4Zm-86.8-56.457a50.663,50.663,0,0,1,17.7-6.485A127.805,127.805,0,0,1,159,280.136a114.566,114.566,0,0,1,11.677.8c11.978,1.406,33.689,8.725,39.315,20.677a18.868,18.868,0,0,1,1.823,9.107c-.238,3.947-2.871,5.77-5.471,8.244a22.469,22.469,0,0,1-5.285,1.057,81.231,81.231,0,0,0-12.942,2.508c-5.74,1.5-11.43,2.92-17.194,4.009a.983.983,0,0,0-1.417.253c-3.322.591-6.672,1.076-10.08,1.381-12.674,1.136-25.98-1.022-37.98-5.1a78.905,78.905,0,0,1-10.314-4.7c-5.355-2.725-3.807-8.836-2.781-13.52C110.115,296.864,116.02,291.878,122.833,287.944Zm86.836,44.645a2.8,2.8,0,0,1-1.827,2.877,2.23,2.23,0,0,0-.842.464,1.979,1.979,0,0,0-.434.833c-.329,1.2.077.277-1.157.739-1.125.421-2.124,2.534-3.2,2.478a11.361,11.361,0,0,0-4.355.131,5.351,5.351,0,0,0-2.416,1.93c-1.9,2.573-3.483-.146-5.177-1.181-1.673-1.018-2.482.812-2.929,2.326-.322-.225-.664-.423-.971-.674a13.1,13.1,0,0,1-1.58-1.638,10.231,10.231,0,0,0-3.2-2.815c-.049-.028-.09.03-.058.073,1,1.256,1.825,2.645,2.8,3.921.251.329.53.689.837,1.037-.792.112-1.381.96-2.682,2.613-.3.382-1.943-1.065-2.523-1.269-1.2-.41-3.642,1.593-4.4.6-1.215-1.583-3.4-2.753-4.673-.56a12.483,12.483,0,0,0-2.306-2.48c1.072-.648,2.158-1.26,3.273-1.853,3.513-1.879,6.564-4.445,10.127-6.21a.419.419,0,0,0,.189-.2,105.87,105.87,0,0,0,12.386-1.1c4.211-.573,8.688-1.5,12.308-3.867a.721.721,0,0,0,.084.069,2.246,2.246,0,0,1,1.245,2.656c-.258,1.449-1.978,1.473-3.011,1.69a3.077,3.077,0,0,0-2.051,1.621c-.228.391-.348.889-.541,1.291-.648,1.333-2.323-.075-3.069-.264a3.154,3.154,0,0,0-3.071.657.1.1,0,0,0,.073.176,5.325,5.325,0,0,1,3.507.726,2.879,2.879,0,0,0,2.066.47c2.184-.721,1.926-3.477,4.314-3.861a3.157,3.157,0,0,0,1.291-5.819c.107-.08.215-.153.322-.236a13.187,13.187,0,0,0,1.872-1.821c.232,1.093.5,2.173.638,3.279a6.591,6.591,0,0,1-.03,1.939c-.082.013-.163.03-.247.041-.036.009-.067.032-.1.043s-.073.013-.107.021A.713.713,0,0,0,209.669,332.589Zm-62.96,9.18a17.222,17.222,0,0,0-1.265,1.422,9.275,9.275,0,0,1-1.391,1.52.428.428,0,0,0-.15.326c-.825.762-1.419,1.608-1.711-.185-.1-.627-.887-.661-1.28-.339-2.353,1.926-1.578.135-3.532.135-.054,0-.105.013-.159.017.2-.311.374-.616.52-.814.747-1.035,1.542-2.04,2.244-3.111.112-.172-.1-.361-.271-.268a9.736,9.736,0,0,0-2.663,2.433c-.419.485-.8,1.013-1.187,1.52-.251.32-.518.62-.47,1a8.236,8.236,0,0,1-1.213.644c.247-2.248,1.061-3.805-1.664-4.359.107-1.353.228-3.9-1.641-3.279a11.384,11.384,0,0,1-4.288.938c-.088,0-.161.013-.241.017,2.025-1.63,4.982-2.414,7.26-3.378a.134.134,0,0,0,.045-.191c1.677.129,3.376.187,5.087.266,1.3.058,2.734.133,4.243.18a.56.56,0,0,0,.363.721c4.784,1.3,8.5,4.542,12.669,6.953a5.136,5.136,0,0,0-.432,1.009c-.563,1.806-2.034,1.273-3.494,1.572-1.181.238-2.268.679-3.414,1.013-.745-1-.374-3.565-2.242-3.616a3.16,3.16,0,0,0-.438.026,21.591,21.591,0,0,0,.85-2.074C146.886,341.788,146.778,341.689,146.71,341.769Zm-22.4-1.5c-.032.067-.071.131-.1.2a8.386,8.386,0,0,0-.468,1.413c-.3-.4-.764-.717-.919-1.162a1.948,1.948,0,0,0-1.963-1.022,8.424,8.424,0,0,1-7.531-2.066c-1.555-1.265-4.512-6.1-2.083-8.08a.316.316,0,0,0,.1-.122c.7.028,1.394.047,2.089.064a5.065,5.065,0,0,0-.88,1.679c-.453,1.709,1.359,2.547,2.646,2.991a1.808,1.808,0,0,0,.938-.013c.764-.185.438.713.271,1.089a1.3,1.3,0,0,0,.479,1.613,1.817,1.817,0,0,0,1.632.228,11.779,11.779,0,0,0,1.185-.421c.457-.155.906.017,1.353-.144a.3.3,0,0,0,.2-.361c-.015-.071-.034-.135-.049-.2a.505.505,0,0,0-.359-.356,4.918,4.918,0,0,0-2.63.419c-1.26.324-.215-1.044-.176-1.278a1.673,1.673,0,0,0-.309-1.406c-.674-1.026-1.606-.268-2.508-.578-.792-.271-1.572-.621-1.346-1.6s.938-1.209,1.589-1.63c1.108.011,2.2.011,3.258.017a31.209,31.209,0,0,0,3.977,3.045,20.645,20.645,0,0,0,9.659,3.124,12.37,12.37,0,0,0-3.571,1.1,12.252,12.252,0,0,0-4.415,2.673A.638.638,0,0,0,124.306,340.266Zm-4.917-15.753c.668.337,1.344.657,2.023.966-.582-.238-1.157-.494-1.722-.777A2.075,2.075,0,0,1,119.389,324.513Zm12.68,5.834a9.552,9.552,0,0,0-1.784-.737c.8.077,1.4.12,1.722.142a.311.311,0,0,0,.155-.578,11.851,11.851,0,0,0-2.723-.827c.142-.013.286-.032.419-.054a.218.218,0,0,0,.094-.361,6.078,6.078,0,0,0-1.3-.784c.243.056.479.118.722.176a120.953,120.953,0,0,0,16.1,2.573,43.6,43.6,0,0,1-13.973.758c.18-.017.356-.041.535-.075A.129.129,0,0,0,132.069,330.347Zm15.027,1.114a.427.427,0,0,0,.348.247,7.054,7.054,0,0,0-1.039.578.048.048,0,0,0,.028.088,18.235,18.235,0,0,0,3.419-.253c-.878.258-1.759.518-2.648.777a.289.289,0,0,0,.075.565,38.439,38.439,0,0,0,4.825-.477,12.955,12.955,0,0,0-1.632.644.064.064,0,0,0,.032.118,25.71,25.71,0,0,0,7.043-.956c-.956.348-1.93.625-2.854.868-4.338,1.153-8.974.977-13.425.953-4.653-.037-9.742.161-14.2-1.413a9.618,9.618,0,0,1,2.117.5c.241.105.447-.228.21-.363a29.443,29.443,0,0,1-2.411-1.784C133.289,333.521,140.457,333.1,147.1,331.461Zm.831.03a8.2,8.2,0,0,1,1.875-.659C149.168,331.036,148.539,331.24,147.927,331.492Zm2.97-1.029a2.507,2.507,0,0,0,.245-.155c.052,0,.1,0,.148,0C151.159,330.36,151.028,330.414,150.9,330.463Zm6.348,1.106a15.641,15.641,0,0,0,2.736-1.422.629.629,0,0,0,.182-.2c.127-.013.249-.024.374-.041A10.515,10.515,0,0,1,157.244,331.569Zm-11.447,4.75c7.148.007,15.179-1.024,18.854-6.914.191-.026.38-.058.569-.084,2.064,2.953,6.934,3.769,10.174,4.129,1.166.131,2.336.2,3.5.247-2.51.994-4.8,2.882-7.1,4.119-3.543,1.913-7.209,3.723-10.105,6.569a.483.483,0,0,0-.077-.03C155.913,342.714,151.5,337.848,145.8,336.319Zm16.24-6.343a.558.558,0,0,0,.032-.236c.067,0,.133-.013.2-.024C162.192,329.8,162.117,329.892,162.037,329.976Zm4.533-.857c.086-.015.17-.028.253-.041a1.006,1.006,0,0,0,.436.462,17.4,17.4,0,0,0,4.207,1.72A10.926,10.926,0,0,1,166.57,329.119Zm32.317-6.225c.777-.146,1.552-.009,2.332-.125.21-.032.419-.075.627-.109a.387.387,0,0,0-.064.021c-1.731.537-3.635.584-5.321,1.215-.084.032-.133.172-.028.217,2.424,1.052,5.866.06,8.589-1.194a10.574,10.574,0,0,1-4.177,1.686c-1.868.445-3.708.857-5.557,1.381-.069.021-.056.135.017.129,1.432-.161,3.217-.165,4.993-.333-1.832.46-3.732.719-5.564.988a107.478,107.478,0,0,1-18.8.621c8.074-1.776,16.036-4.254,24.233-5.265a10.377,10.377,0,0,1-1.321.631A.071.071,0,0,0,198.887,322.894Zm5.274,3.784a13.837,13.837,0,0,0,3.328-1.08,11.982,11.982,0,0,1-2.557,1.327c-1.308.52-2.734,1.123-4.065,1.529a.143.143,0,0,0,.073.277c1.239-.206,2.332-.247,3.446-.423-.369.18-.728.335-1.061.464a51.337,51.337,0,0,1-11.228,2.377c-3.111.4-6.219.668-9.339.764.85-.112,1.677-.251,2.459-.427a.362.362,0,0,0,0-.694,40.686,40.686,0,0,0-5.727-.7,5.213,5.213,0,0,0,.818-.464.213.213,0,0,0-.105-.4,19.631,19.631,0,0,1-3.255-.326,69.635,69.635,0,0,0,20.333-.758,31.888,31.888,0,0,0,7.765-2.326c-.333.217-.666.423-.981.631A.125.125,0,0,0,204.161,326.677Zm3.38-6.032c.062-.021.125-.049.187-.069-.032.06-.058.127-.088.187A.657.657,0,0,0,207.541,320.645Zm2.053-1.009c.021-.017.045-.03.067-.049-.013.092-.022.189-.026.3h0C209.624,319.8,209.607,319.72,209.594,319.636Zm-101.407,5.05a21.56,21.56,0,0,0,3.268-3.595c1.149.58,2.384,1.093,3.562,1.557l0,0c0,.073.024.129.034.2-.573,1.6.457,3.212,1.714,4.5.137.2.288.387.44.578-3.85-.206-8.005-.9-11.83-.494C106.385,326.589,107.321,325.522,108.187,324.687ZM211.872,322.8a5.757,5.757,0,0,0-.23-4.862,10.04,10.04,0,0,0,1.269-1.563c2.684,1.784,6.97,2.811,8.686,5.675C218.529,322.664,214.707,321.6,211.872,322.8Z" transform="translate(-97.808 -276.724)" fill="#3d2314"/><path d="M124.728,282.487c2.072,1.349,4.481-1.211,4.55-3.225a.6.6,0,0,0-.442-.584c-1.306-.412-3.178-.333-3.91.977C123.919,280.426,123.4,281.624,124.728,282.487Zm.374-1.817a.612.612,0,0,0,.573-.107,3.054,3.054,0,0,1,1.215-.842,2.439,2.439,0,0,1,1.224.017,2.705,2.705,0,0,1-2.407,2.137C124.908,281.848,124.816,281.184,125.1,280.671Z" transform="translate(-67.834 -274.736)" fill="#3d2314"/><path d="M121.273,282.431a3.4,3.4,0,0,0,2.205.5,1.4,1.4,0,0,0,1.31-.792c.391-.96-.8-1.793-1.574-2a2.52,2.52,0,0,0-1.729.193.425.425,0,0,0-.073,0,1.148,1.148,0,0,0-.691.552A1.256,1.256,0,0,0,121.273,282.431Zm2.489-.636v0h0l0,0,0,.006Zm-1.615-.558a1.4,1.4,0,0,1,1.342.234l.062.056a1.118,1.118,0,0,1,.1.1c0,.009.056.077.069.1l.021.034s0,0,0,.013l0,.017,0,0h0a1.481,1.481,0,0,1-.741.137,2.32,2.32,0,0,1-1.276-.29.646.646,0,0,1-.187-.2A2.528,2.528,0,0,0,122.147,281.238Z" transform="translate(-71.641 -272.891)" fill="#3d2314"/><path d="M130.721,283.2a1.546,1.546,0,0,0,1.295-.7,1.14,1.14,0,0,0-.344-1.269,3.144,3.144,0,0,0-1.34-.758.124.124,0,0,1-.039-.009.274.274,0,0,0-.174-.12,1.833,1.833,0,0,0-1.66.137,1.31,1.31,0,0,0-.578,1.286C128.054,283.03,129.721,283.294,130.721,283.2Zm-1.733-1.915.017-.009a4.823,4.823,0,0,1,.745.056,2.753,2.753,0,0,1,.9.365,1.939,1.939,0,0,1,.264.213.344.344,0,0,1,.047.056l-.017.015c.017-.009-.163.041-.206.054-.511.118-1.658.279-1.89-.354C128.8,281.531,128.825,281.43,128.988,281.286Z" transform="translate(-63.318 -272.714)" fill="#3d2314"/><path d="M127.319,283.649a1.679,1.679,0,0,0-1.7.822c-.616,1.288.994,1.926,2,1.984a2.109,2.109,0,0,0,2.25-1.864,1.242,1.242,0,0,0-.825-1.248,1.742,1.742,0,0,0-1.626.133A.334.334,0,0,0,127.319,283.649Zm.758.55a.838.838,0,0,1,.331.1l.009.013c.026.043.045.088.073.131l0,.009.006.017v.006c0,.013,0,.03,0,.064,0-.144-.026.024-.054.125-.011.017-.039.079-.047.1l-.026.034a.532.532,0,0,1-.058.062,1.068,1.068,0,0,1-.612.307,1.851,1.851,0,0,1-1.072-.125.367.367,0,0,1-.159-.14c.221-.474.953-.328,1.409-.425A.279.279,0,0,0,128.077,284.2Z" transform="translate(-66.059 -269.283)" fill="#3d2314"/><path d="M123.924,283.977a5.9,5.9,0,0,0,.96-.026,2.87,2.87,0,0,0,3.378-1.172.571.571,0,0,0-.088-.691c-1.544-1.507-4.728-1.233-4.831,1.308A.581.581,0,0,0,123.924,283.977Zm3.015-1.361a2.814,2.814,0,0,1-1.366.631.217.217,0,0,0-.058-.084,1.2,1.2,0,0,0-.842-.344C125.092,282.153,126.188,282.231,126.939,282.615Z" transform="translate(-68.512 -271.629)" fill="#3d2314"/><path d="M116.591,284.394c1.731.524,4.222.917,4.636-1.467a.684.684,0,0,0-.648-.846,1.691,1.691,0,0,1-.371-.107.346.346,0,0,0-.215-.232,2.726,2.726,0,0,0-3.792,2.141A.535.535,0,0,0,116.591,284.394Zm2-1.9a.554.554,0,0,0,.457.442,3.978,3.978,0,0,1,.732.251c-.4.752-1.565.528-2.433.3A1.817,1.817,0,0,1,118.588,282.494Z" transform="translate(-76.707 -271.209)" fill="#3d2314"/><path d="M114.7,284.116A2.092,2.092,0,0,0,116.24,284a2.549,2.549,0,0,0,1.516-2.141c-.011-1-1.063-1.185-1.855-.893-1.175-.129-3,.391-2.622,1.832A2.25,2.25,0,0,0,114.7,284.116Zm.438-2.373a.457.457,0,0,0,.481.492,6.9,6.9,0,0,0,.84-.185l-.009.034c-.047.187-.009.067-.1.247a1.735,1.735,0,0,1-.466.548,1.042,1.042,0,0,1-.648.241,1.237,1.237,0,0,1-.844-.382C113.887,282.293,114.486,281.947,115.134,281.743Z" transform="translate(-80.115 -272.003)" fill="#3d2314"/><path d="M131.972,283.773a.666.666,0,0,0,.3.745c1.462.857,3.717,1.029,4.643-.7a1.4,1.4,0,0,0-.316-1.855,7.865,7.865,0,0,0-2.9-.176A2.913,2.913,0,0,0,131.972,283.773Zm3.575-.807a.362.362,0,0,0,.258-.12c.011.009.019.009.03.021-.041-.049,0,.122,0,.135a.663.663,0,0,1-.14.344c-.464.737-1.426.631-2.192.318A2.4,2.4,0,0,1,135.548,282.966Z" transform="translate(-58.642 -271.053)" fill="#3d2314"/><path d="M131.848,282.82c1.1.176,2.4-.1,2.5-1.437a2.322,2.322,0,0,0-1.9-2.216c-.668-.135-1.183.792-.625,1.164a2.437,2.437,0,0,0-.876.657C130.28,281.843,130.89,282.665,131.848,282.82Zm-.054-1.432a2.122,2.122,0,0,1,.837-.524,1.025,1.025,0,0,1,.26.41.241.241,0,0,1-.028.23,1.123,1.123,0,0,1-.741.256C131.665,281.768,131.487,281.74,131.794,281.387Z" transform="translate(-60.109 -273.936)" fill="#3d2314"/><path d="M141.724,285.375a.545.545,0,0,0,.513-.389,2.4,2.4,0,0,0-.339-2.293c-.352-.442-1.314-1.02-1.866-.752a.206.206,0,0,0-.086.107,1.369,1.369,0,0,0-.146.075,1.777,1.777,0,0,0-.8,1.325C138.8,285.014,140.478,285.519,141.724,285.375Zm-1.439-2.313a.573.573,0,0,1,.307-.125,1.937,1.937,0,0,0,.249-.017c.047-.017.064-.026.071-.034a.084.084,0,0,0,.045.017c.009,0,.015,0,.024,0a1.426,1.426,0,0,1,.152.221,1.784,1.784,0,0,1,.163,1.213c-.6.015-1.271-.107-1.254-.764A.849.849,0,0,1,140.285,283.063Z" transform="translate(-50.562 -270.816)" fill="#3d2314"/><path d="M139.9,286.85a1.781,1.781,0,0,0,.494-2.424,1.911,1.911,0,0,0-1.065-.752,1.774,1.774,0,0,0-1.576.339.528.528,0,0,0-.043.668,1.164,1.164,0,0,0-1.041.556,1.088,1.088,0,0,0,.071,1.286A2.573,2.573,0,0,0,139.9,286.85Zm-1.958-1.89a.185.185,0,0,0,.017-.095.426.426,0,0,0,.159.028c.294,0,.55-.142.848-.133a.561.561,0,0,1,.337.163.83.83,0,0,1,.024.85,1.545,1.545,0,0,1-1.707.251C136.969,285.709,137.762,285.289,137.944,284.96Z" transform="translate(-53.424 -268.81)" fill="#3d2314"/><path d="M134.221,286.038a2.648,2.648,0,0,0-.339.728.387.387,0,0,0,.367.483,9.831,9.831,0,0,1,1.9.116.534.534,0,0,0,.582-.238,1.542,1.542,0,0,0-.23-2.177,2.211,2.211,0,0,0-2.315.067A.6.6,0,0,0,134.221,286.038Zm1.187-.2a.7.7,0,0,1,.371.06c.148.082.131.3.084.522a7.978,7.978,0,0,1-1.069.056A1.531,1.531,0,0,1,135.408,285.836Z" transform="translate(-56.437 -267.633)" fill="#3d2314"/><path d="M131.376,286.492a3.372,3.372,0,0,0,2.493.829c-.15.024.163-.017.236-.03a.952.952,0,0,0,.217-.071,1.55,1.55,0,0,0,.67-.44,3.055,3.055,0,0,0,.6-1.75.781.781,0,0,0-.389-.679,3.978,3.978,0,0,0-1.915-.642,2.082,2.082,0,0,0-.614.062,1.882,1.882,0,0,0-2.175.812C130.2,285.3,130.852,286.076,131.376,286.492Zm.382-1.514a.6.6,0,0,0,.44.264c.331.034.606-.172.938-.163a1.614,1.614,0,0,1,.831.309,1.3,1.3,0,0,1-.15.4c-.112.18-.174.217-.275.243.019-.009-.215.009-.275.009a1.946,1.946,0,0,1-.341-.075,2.844,2.844,0,0,1-.7-.361,5.125,5.125,0,0,1-.442-.419c-.026-.036-.082-.144-.105-.185A.672.672,0,0,1,131.758,284.978Zm-.082.021.006.019-.006-.019Z" transform="translate(-60.386 -268.74)" fill="#3d2314"/><path d="M121.005,285.131a.656.656,0,0,0-.15.578c-.017.026-.041.049-.06.075a1.35,1.35,0,0,0,.279,1.568,2.708,2.708,0,0,0,1.733.842,1.963,1.963,0,0,0,1.617-.445,1.752,1.752,0,0,0-.178-2.542A2.472,2.472,0,0,0,121.005,285.131Zm2.308,1.542a.046.046,0,0,1-.026.019.943.943,0,0,1-.116.047,1.39,1.39,0,0,1-1-.017,1.225,1.225,0,0,1-.348-.23.746.746,0,0,1-.112-.144c-.011-.024-.019-.073-.024-.077,0-.024,0-.034,0-.024a.246.246,0,0,1,.069-.079,1.993,1.993,0,0,0,.329-.069c.049-.011.1-.015.146-.024l.015,0a1.384,1.384,0,0,1,.266,0c.026,0,.054,0,.082,0l.024.009a.978.978,0,0,1,.223.06h.011a.309.309,0,0,0,.058.032,1.3,1.3,0,0,1,.12.079,1.512,1.512,0,0,0,.137.135c.021.028.047.062.058.079l.073.137.009.034,0,.017Z" transform="translate(-71.614 -267.735)" fill="#3d2314"/><path d="M117.016,287.762a1.461,1.461,0,0,0,.1-1.877,2.033,2.033,0,0,0-2.276-.352,2.518,2.518,0,0,0-2.2,1,.658.658,0,0,0,0,.9C113.752,288.617,115.841,289.25,117.016,287.762Zm-2.983-.82a1.19,1.19,0,0,1,1.273-.157.6.6,0,0,0,.61-.088c.045.013.094.019.144.032-.015,0-.009,0,0,.011a.491.491,0,0,1-.12.2,1.194,1.194,0,0,1-.917.38A1.665,1.665,0,0,1,114.033,286.942Z" transform="translate(-80.991 -266.841)" fill="#3d2314"/><path d="M112.642,286.02a2.012,2.012,0,0,0,1.218-.515,2.521,2.521,0,0,0,1.011-1.331.685.685,0,0,0-.3-.741,3.3,3.3,0,0,0-1.518-.382.6.6,0,0,0-.423.129c-.015-.015-.026-.036-.043-.045a.8.8,0,0,0-.457-.127.916.916,0,0,0-.741.245,1.708,1.708,0,0,0-.176,1.666A1.521,1.521,0,0,0,112.642,286.02Zm-.481-2.508c-.017.024,0,.032-.032.036Zm-.247.481v-.041l0-.013a.728.728,0,0,1,.028-.122l.006-.032.013-.013a.91.91,0,0,1,.054-.1l.006-.013.021-.021.075-.079c.086,0,.17.019.26.019a.7.7,0,0,0,.668.919c.075,0,.142.013.215.013a3.216,3.216,0,0,1-.294.277c.054-.043-.094.071-.11.079a1.653,1.653,0,0,1-.167.1l-.019.015-.056.017-.1.021a.794.794,0,0,1-.1,0h0l-.039-.006h-.009l-.032-.024c-.011,0-.047-.032-.067-.045-.056-.056-.165-.18-.118-.116a1.343,1.343,0,0,1-.146-.26l-.034-.092c-.013-.043-.028-.092-.039-.135a1.183,1.183,0,0,1-.024-.144c.013.1,0-.045,0-.064C111.91,284.086,111.91,284.04,111.914,283.993Z" transform="translate(-82.583 -269.518)" fill="#3d2314"/><path d="M146.093,287.673a2.455,2.455,0,0,0,1.926-2.21,1.711,1.711,0,0,0-2.04-1.677.465.465,0,0,0-.438.335.448.448,0,0,0,.438.571c.412.036,1.134.036,1.039.636a1.823,1.823,0,0,1-.96,1.127,1.7,1.7,0,0,1-1.761-.067.574.574,0,0,1-.251-.588c.142-.32.674-.3.951-.372a.286.286,0,0,0,0-.55c-.932-.18-2.018.466-1.611,1.52A2.314,2.314,0,0,0,146.093,287.673Z" transform="translate(-45.614 -268.637)" fill="#3d2314"/><path d="M135.995,287.77a1.873,1.873,0,0,0-1.915,1.705,1.793,1.793,0,0,0,2.149,1.836,3.449,3.449,0,0,0,2.731-1.651c.7-1.52-.956-2.418-2.229-2.547A.655.655,0,0,0,135.995,287.77Zm1.087,1.634a2.527,2.527,0,0,1-.827.391,1.463,1.463,0,0,1-.683.077.658.658,0,0,1-.1-.036.473.473,0,0,1-.052-.041.42.42,0,0,1-.105-.232c-.14-.573.526-.812,1.2-.93h0a5.716,5.716,0,0,1,.962.361A1.311,1.311,0,0,1,137.081,289.4Z" transform="translate(-56.203 -264.808)" fill="#3d2314"/><path d="M121.306,291.862a2.107,2.107,0,0,0,1.563-.683,1.89,1.89,0,0,0,.565-1.759c-.167-1.031-1.9-2.293-2.815-1.409a.745.745,0,0,0-.114.167.777.777,0,0,0-.2.026c-.644.138-.84.833-.891,1.415A2.132,2.132,0,0,0,121.306,291.862Zm-.578-2.648a.4.4,0,0,1,.109-.024c.176.084.363.12.49.18a1.08,1.08,0,0,1,.4.359.226.226,0,0,1,.034.286,1.151,1.151,0,0,1-.434.445.637.637,0,0,1-.56-.374A.976.976,0,0,1,120.728,289.214Z" transform="translate(-73.029 -264.116)" fill="#3d2314"/><path d="M128.9,292.021a2.523,2.523,0,0,0,1.995-2.459,1.751,1.751,0,0,0-2.661-1.379.466.466,0,0,0-.146.165,1.892,1.892,0,0,0-2.162,1.705C125.78,291.606,127.661,292.21,128.9,292.021Zm-.988-1.583a.949.949,0,0,1-.356-.152.21.21,0,0,1,.092-.389,1.473,1.473,0,0,1,.73-.217.579.579,0,0,0,.576-.612.829.829,0,0,1,.273.114.816.816,0,0,1,.109.309,1.02,1.02,0,0,1-.588.951A1.227,1.227,0,0,1,127.908,290.438Z" transform="translate(-65.56 -263.878)" fill="#3d2314"/><path d="M132.075,291.26a2.016,2.016,0,0,0,2.13-1.881c.131-1.243-1.471-1.92-2.465-1.559a.51.51,0,0,0-.3.238,1.576,1.576,0,0,0-1.271,1.885A2.121,2.121,0,0,0,132.075,291.26Zm-.509-1.924a4.416,4.416,0,0,1,.49-.314.635.635,0,0,0,.176-.159.848.848,0,0,1,.324.159.733.733,0,0,1,.118.114c-.047-.049.049.125.019.034a.491.491,0,0,1,.015.18.682.682,0,0,1-.155.3c-.036.041-.262.23-.161.159a1.008,1.008,0,0,1-.114.067c.1-.054.017-.017-.039,0-.03,0-.088.013-.1.013a1.135,1.135,0,0,1-.191-.011c.135.015-.144-.047-.185-.06l-.013,0a.965.965,0,0,1-.159-.088c-.021-.013-.026-.013-.032-.024a.68.68,0,0,1-.1-.092l-.011-.006c-.015-.028-.028-.049-.041-.077l0-.011a.47.47,0,0,1,.032-.077C131.39,289.523,131.542,289.346,131.566,289.336Zm-.163.167,0-.011,0,.011Zm0,0h0l-.006-.011Z" transform="translate(-60.748 -264.105)" fill="#3d2314"/><path d="M110.352,290.769c.346-.163.833-.432.938-.816a2.088,2.088,0,0,0-.258-1.445,1.8,1.8,0,0,0-1.2-.928.369.369,0,0,0-.183-.217,2.4,2.4,0,0,0-1.482-.281,1.216,1.216,0,0,0-.515.23c-.036.024-.23.176-.1.075-.062.047-.12.092-.176.14a1.014,1.014,0,0,0-.2.3,2.473,2.473,0,0,0,.361,2.551A2.225,2.225,0,0,0,110.352,290.769Zm-2.2-2.22,0-.013,0-.013a1.439,1.439,0,0,1,.045-.172l0-.019,0-.006c.013-.028.067-.146.088-.189l0,0,0-.006c.011-.019.013-.024,0,0l.026-.032.024-.013a.315.315,0,0,1,.193-.079.751.751,0,0,0,.444,1.065c.054.015.11.032.161.045s.12.017.183.026a.234.234,0,0,0,.058.013c.084.024.075.019.142.088-.062-.06.064.137.079.18s.039.084.056.129a1.564,1.564,0,0,1-.3.191,1.855,1.855,0,0,1-.185.056c-.024,0-.047.013-.073.017h-.041a.864.864,0,0,1-.105,0l-.142-.021-.069-.028a.645.645,0,0,1-.137-.073l-.019-.011-.011-.009c-.049-.043-.092-.092-.137-.14l-.017-.019-.011-.013a1.3,1.3,0,0,1-.1-.168c-.1-.172-.036-.034-.1-.223A1,1,0,0,1,108.153,288.549Z" transform="translate(-87.295 -264.87)" fill="#3d2314"/><path d="M107.594,287.557h0l0,0,0,0Z" transform="translate(-86.585 -264.295)" fill="#3d2314"/><path d="M107.6,287.57l-.015.036C107.6,287.576,107.654,287.51,107.6,287.57Z" transform="translate(-86.592 -264.308)" fill="#3d2314"/><path d="M115.434,291.063a.545.545,0,0,0-.032.094.5.5,0,0,0-.679-.069,1.388,1.388,0,0,0-.356,2.207,2.694,2.694,0,0,0,2.493.719,1.56,1.56,0,0,0,1.11-2.315C117.562,291.119,115.954,290.109,115.434,291.063Zm-.281,1.228,0,0h0Zm1.383.543a1.537,1.537,0,0,1-1.2-.3.439.439,0,0,1-.185-.243h0c.013.039.017-.009.006-.009a.558.558,0,0,1,.165-.167.585.585,0,0,0,.256-.52,1.291,1.291,0,0,0,.573.228,1.166,1.166,0,0,1,.6.371C116.993,292.459,116.916,292.731,116.536,292.834Z" transform="translate(-79.268 -260.723)" fill="#3d2314"/><path d="M138.224,291.624a1.556,1.556,0,0,0-1.883-.163.436.436,0,0,0-.114.412,1.119,1.119,0,0,0-.12.032,2.025,2.025,0,0,0-1.072,1.05,1.69,1.69,0,0,0,1.52,2.459,2.211,2.211,0,0,0,2.53-2.233A2,2,0,0,0,138.224,291.624Zm-1.668,2.433c-.5-.009-.49-.322-.3-.674.219-.41,1.024-.352,1.1-.829a1.015,1.015,0,0,1,.283.631C137.754,293.75,137.063,294.062,136.556,294.057Z" transform="translate(-55.307 -260.11)" fill="#3d2314"/><path d="M141.23,289.952a1.747,1.747,0,0,0-1.16,1.638c.1,1.561,2.454,1.907,3.56,1.276a2.361,2.361,0,0,0,.842-3.021,2.013,2.013,0,0,0-1.269-1.061,1.876,1.876,0,0,0-2.006.537A.588.588,0,0,0,141.23,289.952Zm.378,1.157a1.973,1.973,0,0,1,1.136-.361.419.419,0,0,0,.341-.223,1.264,1.264,0,0,1,.064.475l0,.054-.006.028a1.656,1.656,0,0,1-.056.208l0,.028a.176.176,0,0,0-.037.052l-.075.116a.683.683,0,0,1-.511.256,1.542,1.542,0,0,1-1.1-.268C141.331,291.443,141.449,291.258,141.608,291.11Z" transform="translate(-49.322 -262.982)" fill="#3d2314"/><path d="M134.983,319.384c-6.476-.876-13.054-.455-19.491-1.215-.045,0-.049.067-.009.079a31.415,31.415,0,0,0,7.625,1.385c3.927.275,7.778,1.213,11.729.812C135.4,320.388,135.631,319.472,134.983,319.384Z" transform="translate(-77.56 -229.174)" fill="#3d2314"/><path d="M128.106,318.854a5.837,5.837,0,0,0-2.512.631.233.233,0,0,0,.116.432c.8-.013,1.6-.013,2.4-.03.666-.017,1.432.172,1.883-.421a.231.231,0,0,0,0-.24C129.538,318.64,128.769,318.82,128.106,318.854Z" transform="translate(-66.056 -228.448)" fill="#3d2314"/><path d="M139.056,305.5c4.095-.556,8.218-.732,12.306-1.344,2.74-.417,6.279-.741,8.433-2.729,2.925-2.695,5.059-8.748,1.907-12.079a.44.44,0,0,0-.747.309c.034.9.137,1.739.213,2.57a6.214,6.214,0,0,1-.891,3.464c-1.048,1.69-2.95,2.667-4.653,3.543-3.586,1.849-7.666,2.4-11.565,3.23-.112.024-.075.176.026.185a25.658,25.658,0,0,0,14.284-2.77,9.609,9.609,0,0,0,1.192-.8,8,8,0,0,1-3.777,2.6c-5.4,1.888-11.265,2.308-16.852,3.361C138.62,305.089,138.76,305.536,139.056,305.5Z" transform="translate(-50.828 -262.39)" fill="#3d2314"/><path d="M157.487,297.829c-2.985-.361-6.421.365-9.358.837a105.041,105.041,0,0,1-11.855,1.645,45.843,45.843,0,0,1-12.158-.6c-2.512-.563-4.823-1.608-7.41-1.005a.191.191,0,0,0,0,.365c3.008.76,5.978,1.84,9.034,2.353a49.936,49.936,0,0,0,10.535.348,63.638,63.638,0,0,0,9.867-1.28c3.794-.764,7.733-.741,11.447-1.913A.383.383,0,0,0,157.487,297.829Z" transform="translate(-76.281 -252.621)" fill="#3d2314"/><path d="M116.845,298.559c-.565-.148-1.157-.18-1.729-.316a4.244,4.244,0,0,0-1.735-.313c-.06,0-.112.084-.058.135a9.714,9.714,0,0,0,1.641,1.089,2.394,2.394,0,0,0,1.881.38A.51.51,0,0,0,116.845,298.559Z" transform="translate(-80.032 -252.417)" fill="#3d2314"/><path d="M110.906,308.127a.561.561,0,0,0,.627-.82c-1.675-2.585-4.947-3.5-6.584-6.247-2.489-4.177.683-10.616,2.452-14.46a.1.1,0,0,0-.148-.12c-3.146,2.895-4.993,8.549-4.376,12.8C103.448,303.229,107.279,306.761,110.906,308.127Z" transform="translate(-92.127 -265.563)" fill="#3d2314"/><path d="M104.037,291.3a10.816,10.816,0,0,0,2.8,6.609c1.056,1.327,4.127,4.67,6.075,3.938a.386.386,0,0,0,.228-.558c-.311-.644-.73-.777-1.368-1.11a13.892,13.892,0,0,1-3.081-2.383,18.934,18.934,0,0,1-4.419-6.53C104.228,291.149,104.031,291.156,104.037,291.3Z" transform="translate(-90.66 -260.133)" fill="#3d2314"/><path d="M146.669,304.729a1.822,1.822,0,0,0-1.9.268c-.273.23-.487.55-.868.582a4.937,4.937,0,0,1-1.9-.556c-1.765-.659-2.8.548-3.017,2.137-.039.286.449.348.5.067.258-1.379.861-1.89,2.072-1.142a5.491,5.491,0,0,0,2.049.719,1.828,1.828,0,0,0,1.522-.38c.528-.483,1.033-.844,1.6-1.284A.26.26,0,0,0,146.669,304.729Z" transform="translate(-50.567 -244.769)" fill="#3d2314"/></g></g></g></svg>