<?xml version="1.0" encoding="iso-8859-1"?>
<!-- Generator: Adobe Illustrator 16.0.0, SVG Export Plug-In . SVG Version: 6.00 Build 0)  -->
<!DOCTYPE svg PUBLIC "-//W3C//DTD SVG 1.1//EN" "http://www.w3.org/Graphics/SVG/1.1/DTD/svg11.dtd">
<svg version="1.1" id="Capa_1" xmlns="http://www.w3.org/2000/svg" xmlns:xlink="http://www.w3.org/1999/xlink" x="0px" y="0px"
	 width="34.432px" height="34.432px" viewBox="0 0 34.432 34.432" style="enable-background:new 0 0 34.432 34.432;"
	 xml:space="preserve">
<g>
	<path d="M30.158,10.603V2.238h-3v6.361l-9.942-6.647L0,13.459V32.48h34.432V13.459L30.158,10.603z M31.432,29.48h-9.41
		l-0.039-7.705l-0.502,0.004l-0.008-1.688c0.663-0.142,1.271-0.541,1.738-1.187c0.551-0.756,0.852-1.752,0.847-2.803
		c-0.012-2.217-1.407-4.021-3.125-4.021c-0.856,0.004-1.651,0.446-2.235,1.247c-0.553,0.759-0.854,1.753-0.849,2.806
		c0.011,2,1.15,3.651,2.624,3.959l0.008,1.689l-0.498,0.002l0.039,7.695h-5.758l-0.038-7.666l-0.5,0.004l-0.017-3.328
		c1.575-0.25,2.783-1.586,2.772-3.196l-0.015-3.25l-1,0.004l0.015,3.25c0.007,1.063-0.757,1.956-1.777,2.187l-0.027-5.429l-1,0.007
		l0.027,5.428c-1.023-0.217-1.796-1.104-1.801-2.168l-0.019-3.252l-1,0.006l0.019,3.252c0.008,1.613,1.229,2.938,2.806,3.169
		l0.017,3.327l-0.5,0.002l0.037,7.656H3V15.064l14.216-9.502l9.942,6.646v0.045h0.065l4.206,2.812L31.432,29.48L31.432,29.48z
		 M18.849,16.126c-0.004-0.84,0.229-1.625,0.654-2.209c0.394-0.539,0.899-0.836,1.44-0.838c1.155,0,2.104,1.357,2.112,3.027
		c0.005,0.838-0.229,1.623-0.655,2.209c-0.393,0.539-0.899,0.838-1.434,0.84l-0.008,0.5v-0.5
		C19.806,19.155,18.857,17.795,18.849,16.126z"/>
</g>
<g>
</g>
<g>
</g>
<g>
</g>
<g>
</g>
<g>
</g>
<g>
</g>
<g>
</g>
<g>
</g>
<g>
</g>
<g>
</g>
<g>
</g>
<g>
</g>
<g>
</g>
<g>
</g>
<g>
</g>
</svg>
