<svg id="Layer_2" height="512" viewBox="0 0 128 128" width="512" xmlns="http://www.w3.org/2000/svg" data-name="Layer 2"><path d="m127.9 97.754-8.524-23.961v-44.134a1.75 1.75 0 0 0 -1.75-1.75 9.428 9.428 0 0 0 -9.417 9.416v27.353h-21.709a1.75 1.75 0 0 0 -1.75 1.75v31.913a1.75 1.75 0 0 0 1.75 1.75h7.667a1.75 1.75 0 0 0 1.75-1.75v-22.5h12.807l8.211 23.083a1.75 1.75 0 0 0 1.648 1.163h7.667a1.75 1.75 0 0 0 1.649-2.337zm-8.081-1.163-8.211-23.083a1.75 1.75 0 0 0 -1.649-1.163h-15.792a1.749 1.749 0 0 0 -1.75 1.75v22.5h-4.167v-28.417h21.708a1.749 1.749 0 0 0 1.75-1.75v-29.1a5.927 5.927 0 0 1 4.167-5.652v42.424a1.754 1.754 0 0 0 .1.587l7.794 21.909z"/><path d="m41.5 64.678h-21.708v-27.353a9.428 9.428 0 0 0 -9.417-9.416 1.75 1.75 0 0 0 -1.75 1.75v44.134l-8.525 23.961a1.75 1.75 0 0 0 1.649 2.337h7.668a1.75 1.75 0 0 0 1.648-1.163l8.211-23.083h12.807v22.5a1.75 1.75 0 0 0 1.75 1.75h7.667a1.75 1.75 0 0 0 1.75-1.75v-31.917a1.75 1.75 0 0 0 -1.75-1.75zm-1.75 31.913h-4.167v-22.491a1.749 1.749 0 0 0 -1.75-1.75h-15.791a1.75 1.75 0 0 0 -1.649 1.163l-8.211 23.078h-3.952l7.794-21.909a1.754 1.754 0 0 0 .1-.587v-42.422a5.927 5.927 0 0 1 4.167 5.652v29.1a1.749 1.749 0 0 0 1.75 1.75h21.709z"/><path d="m74.167 88.925h-4.584v-19.846l11.274-13.385h9.476a5.579 5.579 0 0 0 .838-11.1l-9.537-12.331a1.748 1.748 0 0 0 -1.384-.68h-32.5a1.793 1.793 0 0 0 -1.546.931l-6.362 12.014h-2.175a5.583 5.583 0 1 0 0 11.166h9.476l11.274 13.385v19.846h-4.584a5.583 5.583 0 0 0 0 11.166h20.334a5.583 5.583 0 0 0 0-11.166zm-28.9-40.9h37.471l-3.509 4.175-.525.622-14.704 17.453zm45.071 4.166h-6.533l.506-.6 3-3.565h3.019a2.083 2.083 0 1 1 0 4.166zm-10.947-17.108 7.3 9.445h-28.074l-7.3-9.445zm-31.365 1.469 6.167 7.976h-10.393zm-10.359 15.642a2.083 2.083 0 1 1 0-4.166h3.019l3.514 4.166zm24.25 21.041.745.884a1.748 1.748 0 0 0 2.676 0l.745-.884v15.69h-4.166zm12.25 23.356h-20.334a2.083 2.083 0 0 1 0-4.166h20.334a2.083 2.083 0 0 1 0 4.166z"/><path d="m61.5 41.556h14.583a1.75 1.75 0 0 0 0-3.5h-14.583a1.75 1.75 0 0 0 0 3.5z"/></svg>