<svg xmlns="http://www.w3.org/2000/svg" xmlns:xlink="http://www.w3.org/1999/xlink" width="269.319" height="391.569" viewBox="0 0 269.319 391.569"><defs><clipPath id="a"><path d="M113.33,275.633l-.025-107.191c38.945,0,191.945-.109,214.9-.109l.025,107.192a20.436,20.436,0,0,1-10.208,17.7l-87.007,50.3a20.437,20.437,0,0,1-20.439.009l-87.023-50.2A20.436,20.436,0,0,1,113.33,275.633Z" fill="none"/></clipPath></defs><g transform="translate(-86.11 -36.785)"><g clip-path="url(#a)"><rect width="71.643" height="262.227" transform="translate(113.305 89.973)" fill="#319400"/><rect width="71.643" height="262.227" transform="translate(184.947 89.973)" fill="#fff"/><rect width="71.643" height="262.227" transform="translate(256.59 89.973)" fill="#d90000"/></g><path d="M232.043,96.591H207.957a8.5,8.5,0,0,1-8.493-8.493v-7.38a19.434,19.434,0,0,1,5.762-37.129,19.441,19.441,0,0,1,29.547,0,19.434,19.434,0,0,1,5.763,37.129V88.1A8.5,8.5,0,0,1,232.043,96.591Zm-22.579-10h21.072V72.964l4.035-.794a9.433,9.433,0,0,0-1.827-18.686c-.122,0-.244,0-.365.007l-2.869.107-1.539-2.425a9.435,9.435,0,0,0-15.944,0L210.489,53.6l-2.87-.107c-.121,0-.243-.007-.365-.007a9.433,9.433,0,0,0-1.825,18.686l4.035.794Z" fill="#603813"/><path d="M215.5,83.5A1.5,1.5,0,0,1,214,82V74a1.5,1.5,0,0,1,3,0v8A1.5,1.5,0,0,1,215.5,83.5Z" fill="#603813"/><path d="M224.5,83.5A1.5,1.5,0,0,1,223,82V74a1.5,1.5,0,0,1,3,0v8A1.5,1.5,0,0,1,224.5,83.5Z" fill="#603813"/><path d="M217.193,272.264c-40.677,0-77.452-19.528-103.88-36.033l.008,39.4a20.436,20.436,0,0,0,10.225,17.7l87.023,50.2a20.435,20.435,0,0,0,20.438-.009l87.008-50.3a20.439,20.439,0,0,0,10.209-17.7l-.009-34.8C301.5,260.018,261.677,272.264,217.193,272.264Z" fill="#42210b"/><path d="M220.793,375.976a31.278,31.278,0,0,1-15.628-4.171L101.787,312.174a31.367,31.367,0,0,1-15.649-27.085L86.11,127.706a27.252,27.252,0,0,1,27.205-27.227l214.85-.114h.015a27.22,27.22,0,0,1,27.22,27.213l.029,157.379A31.363,31.363,0,0,1,339.8,312.042L236.446,371.791A31.273,31.273,0,0,1,220.793,375.976ZM100.138,285.085a17.326,17.326,0,0,0,8.645,14.962l103.378,59.631a17.326,17.326,0,0,0,17.278-.008L332.8,299.922a17.326,17.326,0,0,0,8.631-14.962L341.4,127.582a13.22,13.22,0,0,0-13.22-13.217h-.008l-214.849.114A13.236,13.236,0,0,0,100.11,127.7l.028,157.383Z" fill="#603813"/><path d="M.416-22.244H6.8V0H17.527V-22.244h6.012v-8.74H.416ZM38.938-8.093c-3.422,0-3.931-2.636-3.931-7.4s.509-7.4,3.931-7.4c3.561,0,3.931,2.636,3.931,7.4C42.869-10.775,42.453-8.093,38.938-8.093Zm0,8.694C49.251.6,53.691-4.208,53.691-15.492s-4.44-16.093-14.752-16.093S24.186-26.776,24.186-15.492,28.764.6,38.938.6ZM67.98-6.567c9.249,0,14.058-2.59,14.058-12.347s-4.856-12.07-14.058-12.07H55.818V0H66.547V-6.567ZM66.547-15.03v-7.492h.971c2.682,0,3.7.694,3.7,3.653,0,2.821-1.064,3.838-3.7,3.838Zm39.678,8.463c9.249,0,14.058-2.59,14.058-12.347s-4.856-12.07-14.058-12.07H94.062V0h10.729V-6.567Zm-1.434-8.463v-7.492h.971c2.682,0,3.7.694,3.7,3.653,0,2.821-1.064,3.838-3.7,3.838ZM122.364,0h10.729V-30.984H122.364Zm12.995-22.244h10.266v.786L135.359-8.324V0h24.51V-8.74H149.834v-.786l10.035-12.717v-8.74h-24.51Zm26.313,0h10.266v.786L161.673-8.324V0h24.51V-8.74H176.147v-.786l10.035-12.717v-8.74h-24.51ZM186.876,0H197.42l.74-3.561h7.076L206.114,0h10.821l-6.983-30.984H193.721ZM201.3-22.568h1.156l1.665,10.821h-4.578Z" transform="translate(112.188 159.384)" fill="#42210b"/><path d="M335.054,49l.531,1.12s-.906,11.861-40.126,30.187c-5.341-6.282-11.79.425-12.541,1.44-2,.932-22.574,10.36-22.574,10.36l0-.023a.179.179,0,0,1-.06.042,3.75,3.75,0,1,1-3.18-6.792c.017-.016.047-.038.067-.031l.007-.017c20.075-9.37,20.069-9.383,25.4-11.851C284.674,72.441,335.054,49,335.054,49Zm0,0" fill="#42210b"/><path d="M104.311,49l-.531,1.12s.906,11.861,40.126,30.187c5.342-6.282,11.79.425,12.541,1.44,2,.932,22.574,10.36,22.574,10.36l0-.023a.179.179,0,0,0,.06.042,3.75,3.75,0,1,0,3.18-6.792c-.016-.016-.047-.038-.067-.031l-.006-.017c-20.076-9.37-20.07-9.383-25.4-11.851C154.691,72.441,104.311,49,104.311,49Zm0,0" fill="#42210b"/><path d="M327.733,234.031a13.451,13.451,0,0,0-6.568-8.232,217.133,217.133,0,0,0-103.48-26.249,214.618,214.618,0,0,0-96.43,22.587,14.52,14.52,0,0,0-7.424,8.759,13.163,13.163,0,0,0,1.5,10.4L186,363.938v21.207A11.269,11.269,0,0,0,197.315,396.4a16.22,16.22,0,0,0,1.685-.135v19.468c0,7.076,5.147,12.62,12,12.62s12-5.544,12-12.62V411.96a14.537,14.537,0,0,0,10.673-6.8l92.713-160.429A13.947,13.947,0,0,0,327.733,234.031Z" fill="#42210b"/><path d="M319.589,240.539a5.636,5.636,0,0,0-2.178-7.764,209.375,209.375,0,0,0-192.762-3.53,5.638,5.638,0,0,0-2.368,7.864l94.772,164.15a5.628,5.628,0,0,0,9.747,0Z" fill="#f2a031"/><g opacity="0.4"><path d="M148.621,250.6a2.03,2.03,0,0,1-.856-3.872A173.849,173.849,0,0,1,176.721,236.3a2.03,2.03,0,1,1,1.031,3.927,169.778,169.778,0,0,0-28.277,10.182A2.017,2.017,0,0,1,148.621,250.6Z" fill="#ffe092"/><path d="M187.962,237.836a2.03,2.03,0,0,1-.388-4.023,173.7,173.7,0,0,1,66.4,0,2.03,2.03,0,0,1-.777,3.985,169.625,169.625,0,0,0-64.849,0A2.007,2.007,0,0,1,187.962,237.836Z" fill="#ffe092"/><path d="M292.949,250.6a2.017,2.017,0,0,1-.854-.189,169.547,169.547,0,0,0-28.282-10.186,2.031,2.031,0,1,1,1.031-3.928A173.652,173.652,0,0,1,293.8,246.725a2.031,2.031,0,0,1-.856,3.872Z" fill="#ffe092"/></g><g opacity="0.2"><path d="M311.712,234.23a1.018,1.018,0,0,1-.424-.093c-16.2-7.457-49.924-22.976-94.319-22.049-41.183.858-71.165,11.963-85.371,18.506a1.015,1.015,0,1,1-.85-1.843c14.35-6.61,44.627-17.827,86.178-18.693,44.88-.929,78.871,14.715,95.211,22.235a1.015,1.015,0,0,1-.425,1.937Z" fill="#1a1a1a"/></g><path d="M142.232,256.94l-12.6-21.472,1.345.446a17.075,17.075,0,0,1,11.583,18.215Z" fill="#ffe092"/><path d="M301.963,256.94l12.6-21.472-1.345.446a17.077,17.077,0,0,0-11.583,18.215Z" fill="#ffe092"/><path d="M291.235,255.35a164.848,164.848,0,0,0-139.682-.834,9.233,9.233,0,0,0-4,13.1L192,343.766v40.216a4.5,4.5,0,0,0,9,0v-24.94l6,10.291v46.582a4.5,4.5,0,1,0,9,0V384.2a9.113,9.113,0,0,0,14.324-2.055l65.094-113.789A9.325,9.325,0,0,0,291.235,255.35Z" fill="#ffe092"/><path d="M162.159,270.664a11.654,11.654,0,1,0,15.989-3.995A11.653,11.653,0,0,0,162.159,270.664Z" fill="#e6332b"/><path d="M163.451,271.439a10.147,10.147,0,1,0,13.922-3.478A10.146,10.146,0,0,0,163.451,271.439Z" fill="#ff3c16"/><path d="M169.995,284.068l-3.566-2.385a1.007,1.007,0,0,1-.058-1.633l3.224-2.5a1.007,1.007,0,0,0,.155-1.441l-3.091-3.7a1.006,1.006,0,0,1,.624-1.641l7.125-1.07a1.007,1.007,0,0,1,1.013,1.514l-2.286,3.808a1.007,1.007,0,0,0,.855,1.525l5.132.042a1.007,1.007,0,0,1,.892,1.459l-2.705,5.386a1.007,1.007,0,0,1-1.736.109L173.8,280.9a1.006,1.006,0,0,0-1.822.363l-.436,2.167A1.007,1.007,0,0,1,169.995,284.068Z" fill="#ff701c"/><path d="M169.1,281.713h0a1.07,1.07,0,0,1-.144-1.47l1.79-2.288a1.07,1.07,0,0,0,.121-1.126l-1.766-3.647a1.071,1.071,0,0,1,.77-1.519l1.615-.3a1.071,1.071,0,0,1,1.258,1.177l-.428,3.658a1.071,1.071,0,0,0,.914,1.184l3.523.494a1.07,1.07,0,0,1,.769,1.611l-.9,1.5a1.069,1.069,0,0,1-1.658.221l-1.551-1.486a1.07,1.07,0,0,0-1.624.168l-1.106,1.614A1.07,1.07,0,0,1,169.1,281.713Z" fill="#ff811d"/><path d="M166.877,275.956a.9.9,0,1,0,1.241-.31A.9.9,0,0,0,166.877,275.956Z" fill="#ff811d"/><path d="M174.467,274.51a.738.738,0,1,0,1.013-.254A.739.739,0,0,0,174.467,274.51Z" fill="#ff811d"/><path d="M171.9,283.406a.739.739,0,1,0,1.014-.253A.739.739,0,0,0,171.9,283.406Z" fill="#ff811d"/><path d="M177.8,273.571a1.086,1.086,0,1,0,1.49-.372A1.086,1.086,0,0,0,177.8,273.571Z" fill="#ff811d"/><path d="M192.765,322.745a11.653,11.653,0,1,0,15.988-3.994A11.654,11.654,0,0,0,192.765,322.745Z" fill="#e6332b"/><path d="M194.057,323.52a10.146,10.146,0,1,0,13.92-3.478A10.145,10.145,0,0,0,194.057,323.52Z" fill="#ff3c16"/><path d="M200.6,336.149l-3.566-2.385a1.006,1.006,0,0,1-.057-1.632l3.223-2.5a1.007,1.007,0,0,0,.155-1.441l-3.09-3.7a1.006,1.006,0,0,1,.623-1.641l7.125-1.07a1.007,1.007,0,0,1,1.013,1.514L203.74,327.1a1.007,1.007,0,0,0,.855,1.525l5.132.042a1.007,1.007,0,0,1,.892,1.459l-2.705,5.386a1.007,1.007,0,0,1-1.736.109L204.4,332.98a1.008,1.008,0,0,0-1.824.364l-.435,2.167A1.006,1.006,0,0,1,200.6,336.149Z" fill="#ff701c"/><path d="M199.71,333.8h0a1.072,1.072,0,0,1-.144-1.471l1.79-2.288a1.07,1.07,0,0,0,.121-1.126l-1.765-3.647a1.07,1.07,0,0,1,.769-1.519l1.616-.3a1.07,1.07,0,0,1,1.257,1.177l-.428,3.658a1.069,1.069,0,0,0,.915,1.184l3.522.494a1.07,1.07,0,0,1,.769,1.611l-.9,1.5a1.071,1.071,0,0,1-1.659.222l-1.551-1.487a1.07,1.07,0,0,0-1.624.168l-1.106,1.614A1.07,1.07,0,0,1,199.71,333.8Z" fill="#ff811d"/><path d="M197.482,328.037a.9.9,0,1,0,1.241-.31A.9.9,0,0,0,197.482,328.037Z" fill="#ff811d"/><path d="M205.072,326.591a.738.738,0,1,0,1.013-.253A.739.739,0,0,0,205.072,326.591Z" fill="#ff811d"/><path d="M202.5,335.488a.739.739,0,1,0,1.014-.254A.739.739,0,0,0,202.5,335.488Z" fill="#ff811d"/><path d="M208.4,325.652a1.086,1.086,0,1,0,1.49-.372A1.086,1.086,0,0,0,208.4,325.652Z" fill="#ff811d"/><path d="M220.891,349.579a7.935,7.935,0,1,0,10.888-2.721A7.935,7.935,0,0,0,220.891,349.579Z" fill="#e6332b"/><path d="M221.77,350.106a6.91,6.91,0,1,0,9.48-2.368A6.911,6.911,0,0,0,221.77,350.106Z" fill="#ff3c16"/><path d="M226.227,358.707l-2.429-1.624a.686.686,0,0,1-.039-1.112l2.195-1.7a.685.685,0,0,0,.106-.981l-2.1-2.519a.686.686,0,0,1,.424-1.118l4.853-.728a.685.685,0,0,1,.689,1.031l-1.556,2.593a.685.685,0,0,0,.582,1.038l3.495.029a.685.685,0,0,1,.607.993l-1.842,3.668a.686.686,0,0,1-1.182.074l-1.208-1.8a.685.685,0,0,0-1.241.247l-.3,1.475A.685.685,0,0,1,226.227,358.707Z" fill="#ff701c"/><path d="M225.621,357.1h0a.731.731,0,0,1-.1-1l1.22-1.558a.731.731,0,0,0,.082-.767l-1.2-2.484a.728.728,0,0,1,.523-1.034l1.1-.2a.729.729,0,0,1,.856.8l-.292,2.492a.73.73,0,0,0,.624.806l2.4.336a.729.729,0,0,1,.524,1.1l-.613,1.022a.73.73,0,0,1-1.13.152l-1.056-1.013a.73.73,0,0,0-1.106.114l-.753,1.1A.73.73,0,0,1,225.621,357.1Z" fill="#ff811d"/><path d="M224.1,353.183a.616.616,0,1,0,.845-.212A.615.615,0,0,0,224.1,353.183Z" fill="#ff811d"/><path d="M229.272,352.2a.5.5,0,1,0,.69-.173A.5.5,0,0,0,229.272,352.2Z" fill="#ff811d"/><path d="M227.521,358.256a.5.5,0,1,0,.69-.172A.5.5,0,0,0,227.521,358.256Z" fill="#ff811d"/><path d="M231.541,351.559a.739.739,0,1,0,1.014-.254A.739.739,0,0,0,231.541,351.559Z" fill="#ff811d"/><path d="M252.684,335.539s-5.111-17.716-13.463-25.374-13.174-6.248-16.781-2.359-4.631,8.781,3.72,16.44S252.684,335.539,252.684,335.539Z" fill="#00bd00"/><path d="M252.319,335.12a9.39,9.39,0,0,1-1.763-.345,16.318,16.318,0,0,1-1.947-.655l-1.167-.485-1.26-.61c-.871-.439-1.8-.953-2.754-1.532s-1.941-1.233-2.915-1.962c-1.005-.7-1.984-1.485-2.979-2.29-1.02-.78-1.958-1.674-2.943-2.524-1.005-.832-1.892-1.775-2.847-2.632a34.616,34.616,0,0,1-2.628-2.679,28.684,28.684,0,0,1-2.2-2.73c-.657-.9-1.257-1.766-1.792-2.578-.556-.8-.971-1.594-1.37-2.277s-.711-1.3-.967-1.813c-.516-1.018-.768-1.626-.768-1.626l.228-.166s.519.415,1.352,1.188c.419.385.912.863,1.465,1.416L226.9,312.7c.677.68,1.39,1.429,2.122,2.237s1.518,1.644,2.3,2.532,1.525,1.87,2.344,2.807,1.613,1.932,2.5,2.829,1.731,1.852,2.652,2.685c.9.859,1.789,1.705,2.7,2.457.884.794,1.8,1.472,2.656,2.147.863.656,1.705,1.248,2.5,1.761l1.156.719,1.076.587c.684.349,1.291.644,1.8.844a9.239,9.239,0,0,0,1.64.539Z" fill="#3ba935"/><path d="M188,308.724s9.646-2.575,13.882-7.013,3.525-7.064,1.459-9.059-4.7-2.6-8.94,1.836S188,308.724,188,308.724Z" fill="#00bd00"/><path d="M188.227,308.531a5.073,5.073,0,0,1,.206-.95,8.665,8.665,0,0,1,.375-1.047c.086-.2.178-.407.275-.627s.225-.44.344-.676c.247-.466.536-.962.86-1.474s.688-1.037,1.093-1.557c.388-.536.826-1.057,1.272-1.588s.928-1.041,1.4-1.566.982-1,1.456-1.512a18.81,18.81,0,0,1,1.479-1.394,15.751,15.751,0,0,1,1.5-1.16c.494-.345.969-.661,1.415-.941s.873-.509,1.247-.718.713-.37.993-.5c.556-.269.888-.4.888-.4l.087.125s-.23.276-.658.719c-.212.222-.476.484-.782.778s-.657.614-1.036.97-.789.736-1.234,1.124-.906.8-1.4,1.219-1.03.806-1.545,1.239-1.064.853-1.559,1.323-1.022.917-1.482,1.407-.943.949-1.36,1.436c-.44.47-.816.96-1.191,1.414s-.694.91-.981,1.335c-.14.216-.273.422-.4.618l-.329.577c-.2.366-.364.691-.477.967a4.944,4.944,0,0,0-.31.883Z" fill="#3ba935"/><path d="M213.209,294.077s-14.452-13.023-17.866-24.48.149-15.382,5.5-17.011,10.469-.344,13.883,11.113S213.209,294.077,213.209,294.077Z" fill="#00bd00"/><path d="M212.981,293.537a10.069,10.069,0,0,0,.486-1.832,17.556,17.556,0,0,0,.276-2.149c.025-.418.051-.863.078-1.332q0-.7,0-1.477c-.015-1.029-.076-2.145-.184-3.319s-.274-2.411-.517-3.673c-.2-1.274-.493-2.566-.8-3.882-.27-1.328-.686-2.63-1.037-3.957-.327-1.337-.812-2.614-1.185-3.915a36.77,36.77,0,0,0-1.329-3.73,30.66,30.66,0,0,0-1.577-3.344c-.552-1.038-1.1-2.007-1.62-2.889-.5-.895-1.065-1.657-1.529-2.35-.48-.686-.908-1.276-1.275-1.754-.727-.959-1.188-1.479-1.188-1.479l-.263.14s.155.684.5,1.83c.171.576.4,1.263.667,2.044s.594,1.649.938,2.6.714,1.978,1.143,3.045.86,2.2,1.34,3.354,1.071,2.311,1.582,3.519,1.089,2.423,1.531,3.679.959,2.5,1.324,3.754c.4,1.25.793,2.484,1.085,3.7.346,1.205.565,2.389.812,3.51.225,1.123.4,2.2.518,3.186q.076.747.148,1.429c.021.454.042.886.061,1.291.016.81.016,1.523-.031,2.1a9.709,9.709,0,0,1-.246,1.806Z" fill="#3ba935"/><path d="M251.546,260s2.523-9.693,3.873-10.691-3.99.845-4.694,2.312c0,0-1.819-7.205-6.513-8.848,0,0,3.462,5.726,2.523,7.9a38.442,38.442,0,0,0-5.222.177S246.324,253,246.735,260Z" fill="#75a633" fill-rule="evenodd"/><rect height="0.939" transform="translate(260.441 253.083) rotate(-0.061)" fill="none"/><path d="M261,254.96a41.07,41.07,0,0,0-9.727,1.713,15.823,15.823,0,0,1-6.3,1.157c-.261,0-.6,0-.881-.008-.043,0-.122,0-.165-.007l-.639-.056c-1.492-.135-3.191-.288-4.975-.288-4.766,0-8.094,1.109-10.463,3.488-2.833,2.846-4.256,7.643-4.225,14.257.1,20.7,13.832,22.934,19.735,22.934a10.565,10.565,0,0,0,4.339-1.027c.337-.387.828-1.123,1.377-1.123h.039c.683,0,1.289.846,1.618,1.4a10.2,10.2,0,0,0,4.092.775c2.524,0,11.218-.381,17.081-6.827,4.082-4.487,6.043-10.789,5.279-18.85C276.209,260.817,271,254.961,261,254.96v-.939h0Z" fill="#ec0012"/><path d="M278.989,272.663c-1.291-15.4-7.989-19.58-17.989-19.58v1.877c10,0,15.209,5.917,16.189,17.6.764,8.061-1.058,14.423-5.14,18.91-5.864,6.445-14.626,6.946-17.151,6.946a9.23,9.23,0,0,1-4.127-1.014c-.328-.558-.969-1.4-1.652-1.4h-.039c-.549,0-1.041.736-1.378,1.123a12.01,12.01,0,0,1-4.34.788c-5.9,0-19.64-2.115-19.736-22.814-.03-6.615,1.391-11.351,4.224-14.2,2.369-2.38,5.692-3.459,10.458-3.459,1.785,0,3.475.168,4.966.3l.622.063c.043,0,.087.01.13.011.282.005.551.01.812.01a16.46,16.46,0,0,0,6.435-1.156A41.078,41.078,0,0,1,261,254.96v-1.877a36.926,36.926,0,0,0-10.375,1.828,14.05,14.05,0,0,1-5.648,1.042c-.25,0-.577,0-.846-.008-1.618-.143-3.655-.351-5.788-.352-7.5,0-16.656,2.574-16.576,19.632.1,20.76,13.6,24.8,21.6,24.8,3.345,0,5.721-.707,5.752-1.193.081.784,2.5,1.6,5.812,1.6C264.144,300.435,281.138,295.344,278.989,272.663Z" fill="#aa242e"/><path d="M260.441,253.083Z" fill="#aa242e"/><path d="M259.283,276.033c-1.018-7.606-6.862-8.38-3.321-14.044,3.541-5.594,15.144-2.991,16.222,10.344,1.123,13.4-8.991,23.352-13.193,19.019C254.847,287.086,260.308,283.657,259.283,276.033Z" fill="#f2613b" fill-rule="evenodd"/><path d="M242.8,277.088c-.062-7.806,5.593-9.586,1.332-14.583-4.259-4.84-15.325-.628-14.414,13.172.843,14.2,12,22.181,15.508,16.716C248.684,287.208,242.861,284.961,242.8,277.088Z" fill="#f2613b" fill-rule="evenodd"/><path d="M240.908,289.5c-.837.674-1.742.853-2.024.416s.159-1.3.991-1.968,1.749-.872,2.031-.449S241.745,288.828,240.908,289.5Z" fill="#ffa23b" fill-rule="evenodd"/><path d="M238.8,285.626c-.978.372-1.917.249-2.1-.243s.462-1.158,1.438-1.526,1.916-.293,2.1.193S239.779,285.253,238.8,285.626Z" fill="#ffa23b" fill-rule="evenodd"/><path d="M236.953,281.015c-1.063-.069-1.937-.551-1.958-1.054s.814-.848,1.872-.794,1.941.505,1.961,1.018S238.013,281.08,236.953,281.015Z" fill="#ffa23b" fill-rule="evenodd"/><path d="M236.373,276.069c-1.048-.292-1.839-.937-1.774-1.42s.966-.643,2.016-.364,1.846.9,1.78,1.4S237.421,276.361,236.373,276.069Z" fill="#ffa23b" fill-rule="evenodd"/><path d="M237.13,271.6c-1.033-.4-1.769-1.1-1.658-1.582s1.036-.543,2.06-.168,1.777,1.076,1.659,1.553S238.155,271.987,237.13,271.6Z" fill="#ffa23b" fill-rule="evenodd"/><path d="M238.479,266.989c-.98-.53-1.623-1.329-1.448-1.78s1.111-.39,2.09.124,1.627,1.315,1.447,1.769S239.457,267.517,238.479,266.989Z" fill="#ffa23b" fill-rule="evenodd"/><path d="M260.938,263.83c.837-.675,1.743-.853,2.024-.416s-.158,1.3-.991,1.967-1.748.872-2.03.45S260.1,264.5,260.938,263.83Z" fill="#ffa23b" fill-rule="evenodd"/><path d="M263.041,267.7c.979-.372,1.918-.25,2.1.242s-.463,1.159-1.439,1.526-1.915.294-2.1-.193S262.067,268.075,263.041,267.7Z" fill="#ffa23b" fill-rule="evenodd"/><path d="M264.894,272.314c1.063.068,1.937.55,1.958,1.053s-.815.848-1.872.794-1.941-.505-1.962-1.017S263.834,272.248,264.894,272.314Z" fill="#ffa23b" fill-rule="evenodd"/><path d="M265.473,277.259c1.049.292,1.839.937,1.774,1.42s-.966.644-2.016.364-1.846-.9-1.779-1.4S264.426,276.968,265.473,277.259Z" fill="#ffa23b" fill-rule="evenodd"/><path d="M264.717,281.726c1.033.4,1.768,1.1,1.658,1.583s-1.036.543-2.061.167-1.776-1.075-1.659-1.553S263.691,281.341,264.717,281.726Z" fill="#ffa23b" fill-rule="evenodd"/><path d="M263.368,286.34c.98.529,1.623,1.328,1.448,1.779s-1.112.391-2.091-.124-1.627-1.314-1.447-1.769S262.389,285.811,263.368,286.34Z" fill="#ffa23b" fill-rule="evenodd"/></g></svg>